<?xml version="1.0" standalone="no"?>
<!DOCTYPE svg PUBLIC "-//W3C//DTD SVG 1.1//EN" "http://www.w3.org/Graphics/SVG/1.1/DTD/svg11.dtd" >
<svg xmlns="http://www.w3.org/2000/svg" xmlns:xlink="http://www.w3.org/1999/xlink" version="1.1">
<metadata></metadata>
<defs>
<font id="grota_sans_rdsemi_bold" horiz-adv-x="1062" >
<font-face units-per-em="2048" ascent="1536" descent="-512" />
<missing-glyph horiz-adv-x="382" />
<glyph horiz-adv-x="0" />
<glyph horiz-adv-x="682" />
<glyph unicode=" "  horiz-adv-x="382" />
<glyph unicode="&#x09;" horiz-adv-x="382" />
<glyph unicode="&#xa0;" horiz-adv-x="382" />
<glyph unicode="!" horiz-adv-x="430" d="M143 414l-34 1024q-2 28 15 44.5t50 16.5h90q31 0 47.5 -18t14.5 -47l-39 -1016q-3 -60 -56 -60h-32q-53 0 -56 56zM213 -14q-51 0 -85 34.5t-34 85.5t34 86t85 35q50 0 84.5 -35t34.5 -86t-34.5 -85.5t-84.5 -34.5z" />
<glyph unicode="&#x22;" horiz-adv-x="667" d="M106 1212l-22 447q-3 63 59 63h60q31 0 46.5 -17t12.5 -46l-26 -447q-3 -57 -50 -57h-32q-45 0 -48 57zM432 1212l-22 449q-2 28 13 44.5t46 16.5h59q32 0 47.5 -17.5t12.5 -45.5l-27 -447q-3 -57 -49 -57h-33q-44 0 -47 57z" />
<glyph unicode="#" horiz-adv-x="1525" d="M1190 905l-133 -342h241q32 0 49 -16.5t17 -44.5v-39q0 -28 -17 -45t-49 -17h-301l-131 -342q-22 -59 -88 -59h-80q-31 0 -41.5 18t0.5 41l129 342h-325l-131 -342q-22 -59 -86 -59h-82q-31 0 -41.5 18t0.5 41l131 342h-125q-33 0 -49.5 16.5t-16.5 45.5v39q0 61 66 61 h184l133 342h-215q-63 0 -63 62v37q0 61 63 61h275l137 358q22 60 88 60h84q28 0 38.5 -17.5t2.5 -42.5l-139 -358h325l138 358q22 60 86 60h84q29 0 40 -17.5t1 -42.5l-138 -358h152q65 0 65 -61v-37q0 -62 -65 -62h-213zM979 905h-324l-133 -342h326z" />
<glyph unicode="$" horiz-adv-x="1132" d="M283 379q12 -80 67.5 -131.5t147.5 -63.5v480q-42 15 -67 24t-65 26t-64.5 30.5t-57.5 35.5t-53.5 43t-43 51t-35 62.5t-20.5 73.5t-8 88q0 69 23 133t68.5 120.5t123 95.5t178.5 50v45q0 55 53 55h84q56 0 56 -55v-49q161 -24 262 -118t119 -253q4 -36 -9 -51.5 t-49 -21.5l-96 -17q-57 -7 -63 39q-12 88 -61 144t-130 75v-456q51 -19 85.5 -33t82 -38t79 -47t66 -58.5t54.5 -74.5t33.5 -92t13.5 -114q0 -154 -92.5 -259t-294.5 -130v-58q0 -27 -15.5 -42t-40.5 -15h-84q-55 0 -55 57v54q-173 13 -277.5 103t-129.5 245q-5 32 7 50 t46 24l90 14q63 10 72 -41zM821 399q0 76 -46.5 125.5t-131.5 85.5v-424q178 34 178 213zM319 1094q0 -71 46.5 -118t132.5 -85v405q-90 -14 -134.5 -70t-44.5 -132z" />
<glyph unicode="%" horiz-adv-x="1314" d="M324 1501q137 0 196.5 -85.5t59.5 -274.5q0 -185 -59 -265.5t-195 -80.5q-132 0 -192 81.5t-60 264.5q0 189 58 274.5t192 85.5zM326 922q58 0 82 51t24 168q0 123 -24 177t-82 54t-81.5 -54t-23.5 -177q0 -116 25 -167.5t80 -51.5zM985 113q57 0 82 51.5t25 167.5 q0 122 -25 176.5t-82 54.5q-58 0 -82 -54t-24 -177q0 -115 25 -167t81 -52zM985 -16q-132 0 -193 82.5t-61 265.5q0 189 59 273.5t195 84.5q134 0 194 -85.5t60 -272.5q0 -185 -59.5 -266.5t-194.5 -81.5zM131 55l852 1372q18 29 39.5 42.5t58.5 13.5h84q27 0 35.5 -18 t-4.5 -38l-854 -1372q-34 -55 -100 -55h-80q-26 0 -34.5 18t3.5 37z" />
<glyph unicode="&#x26;" horiz-adv-x="1359" d="M262 1182q0 132 96 225.5t263 93.5q175 0 266.5 -87t91.5 -224q0 -58 -24 -113.5t-56.5 -94.5t-77.5 -75t-75 -54t-60 -34l346 -426q73 121 86 297q3 35 19.5 46t50.5 3l76 -18q63 -16 57 -78q-17 -255 -158 -434l131 -160q14 -15 9 -32t-31 -17h-103q-55 0 -90 39 l-45 55q-151 -110 -385 -110q-123 0 -223 26.5t-166 70t-110.5 102t-64 120t-19.5 125.5q0 81 26 153.5t62.5 120t84 87t81 58.5t63.5 32q-20 25 -43.5 62t-50.5 108t-27 133zM295 438q0 -47 19 -91t58.5 -83t111 -62.5t165.5 -23.5q138 0 252 70l-399 485q-22 -11 -44 -25 t-53 -41.5t-54 -58t-39.5 -76t-16.5 -94.5zM625 1323q-75 0 -114.5 -44t-39.5 -105q0 -99 102 -220q199 105 199 232q0 56 -37.5 96.5t-109.5 40.5z" />
<glyph unicode="'" horiz-adv-x="344" d="M106 1212l-22 447q-3 63 59 63h60q31 0 46.5 -17t12.5 -46l-26 -447q-7 -57 -50 -57h-32q-45 0 -48 57z" />
<glyph unicode="(" horiz-adv-x="708" d="M303 766q0 -142 26.5 -271.5t64 -217.5t88.5 -165t88.5 -118t76.5 -74q47 -44 2 -86l-53 -51q-21 -18 -46.5 -18t-45.5 16q-47 38 -93.5 85.5t-112 139.5t-113.5 194.5t-82.5 252.5t-34.5 313q0 162 34.5 311.5t82.5 252t113.5 194.5t112 140t93.5 87q20 15 46 15.5 t46 -17.5l55 -53q43 -46 -4 -84q-39 -34 -76.5 -75t-88.5 -119t-88.5 -166t-64 -216.5t-26.5 -269.5z" />
<glyph unicode=")" horiz-adv-x="708" d="M406 766q0 141 -27 269.5t-64.5 216.5t-89 166t-89.5 119t-77 75q-46 40 -2 84l54 53q22 19 46.5 18t45.5 -16q32 -26 63.5 -56.5t76.5 -83.5t84 -111t80 -139.5t69.5 -168.5t46.5 -198t18 -228q0 -118 -18 -229.5t-47 -198.5t-69.5 -168.5t-79.5 -139.5t-84 -110.5 t-76.5 -82.5t-63.5 -56q-20 -16 -45 -16.5t-47 18.5l-52 51q-45 45 0 86q39 33 77 73.5t89.5 118.5t89 165.5t64.5 217t27 271.5z" />
<glyph unicode="*" horiz-adv-x="1261" d="M606 1632h58q31 0 44.5 -18t10.5 -45l-37 -383l246 291q16 21 38.5 24t45.5 -18l41 -43q21 -23 18 -45.5t-24 -38.5l-297 -242l380 35q27 3 44.5 -11.5t17.5 -45.5v-58q0 -31 -17.5 -44.5t-44.5 -10.5l-382 37l294 -244q49 -42 5 -86l-41 -41q-47 -47 -84 6l-244 295 l35 -379q3 -27 -12 -45t-46 -18h-59q-30 0 -44 18t-11 45l39 381l-246 -291q-18 -21 -40.5 -24t-45.5 18l-41 43q-21 23 -18 45.5t24 38.5l295 242l-379 -35q-26 -3 -43.5 11.5t-17.5 45.5v58q0 31 18.5 45.5t44.5 9.5l379 -37l-291 248q-22 14 -25 37.5t19 46.5l43 41 q22 20 45.5 17.5t38.5 -23.5l242 -297l-33 381q-5 26 10.5 44.5t46.5 18.5z" />
<glyph unicode="+" horiz-adv-x="1032" d="M618 858h285q64 0 64 -65v-50q0 -63 -64 -63h-285v-313q0 -64 -65 -64h-64q-63 0 -63 64v313h-295q-65 0 -65 63v50q0 65 65 65h295v301q0 64 63 64h64q65 0 65 -64v-301z" />
<glyph unicode="," horiz-adv-x="458" d="M74 141q0 65 43.5 110.5t107.5 45.5t109 -45.5t45 -110.5v-141q0 -65 -10.5 -114.5t-35 -90t-68 -61.5t-105.5 -21l-31 2q-14 2 -20.5 8.5t-6.5 24.5v49q0 18 5 24t20 3q19 -4 35 -4q102 0 102 125v51q-18 -6 -39 -6q-64 0 -107.5 44t-43.5 107z" />
<glyph unicode="-" horiz-adv-x="1075" d="M172 717h731q64 0 64 -64v-49q0 -65 -64 -65h-731q-63 0 -63 65v49q0 64 63 64z" />
<glyph unicode="." horiz-adv-x="450" d="M74 141q0 65 43.5 110.5t107.5 45.5t109 -45.5t45 -110.5q0 -63 -45 -107t-109 -44t-107.5 44t-43.5 107z" />
<glyph unicode="/" horiz-adv-x="1234" d="M70 55l852 1372q37 56 98 56h117q27 0 35 -17t-5 -39l-856 -1372q-34 -55 -98 -55h-113q-27 0 -35 17.5t5 37.5z" />
<glyph unicode="0" horiz-adv-x="1230" d="M616 193q152 0 221.5 126.5t69.5 405.5q0 292 -69.5 428.5t-221.5 136.5t-222 -137t-70 -428q0 -276 72.5 -404t219.5 -128zM616 -16q-270 0 -399 177.5t-129 563.5q0 399 127.5 587.5t400.5 188.5q271 0 399 -189t128 -587q0 -388 -127 -564.5t-400 -176.5z" />
<glyph unicode="1" horiz-adv-x="751" d="M504 1483h63q30 0 48 -18t18 -46v-1356q0 -29 -16.5 -46t-49.5 -17h-104q-31 0 -48.5 17t-17.5 46v1098q-27 -22 -62 -43.5t-100 -46t-131 -31.5q-27 -4 -45 13.5t-18 44.5v78q0 64 63 73q167 26 308 189q17 17 26 24.5t26.5 14t39.5 6.5z" />
<glyph unicode="2" horiz-adv-x="1114" d="M74 1083q6 91 35 164t84.5 131.5t146.5 90.5t213 32q120 0 214.5 -35t152.5 -95t88 -137.5t30 -166.5q0 -95 -36 -184t-94 -157.5t-128 -131t-139.5 -114t-127.5 -97t-94 -89.5t-36 -83v-6h573q33 0 49.5 -18t16.5 -48v-76q0 -29 -16.5 -46t-49.5 -17h-804q-64 0 -64 63 v72q0 75 39 146t101.5 130t137.5 117.5t150.5 117.5t138 119t101.5 134t39 152q0 100 -65 169.5t-187 69.5q-113 0 -175.5 -72.5t-72.5 -187.5q-3 -47 -72 -35l-94 19q-58 12 -55 69z" />
<glyph unicode="3" horiz-adv-x="1179" d="M305 406q13 -94 81.5 -154t191.5 -59q126 0 202 64.5t76 178.5q0 80 -51 133t-129 74t-180 21h-33q-29 0 -29 30v131q0 29 29 29h33q146 0 235.5 49t89.5 158q0 106 -72 167.5t-188 61.5t-179 -61t-77 -150q-6 -46 -69 -35l-101 21q-30 4 -44 24t-11 50q8 77 39.5 140.5 t88.5 114t149.5 79t213.5 28.5q231 0 361.5 -110.5t130.5 -286.5q0 -147 -74.5 -232.5t-197.5 -115.5q145 -27 227 -118.5t82 -238.5q0 -185 -140.5 -300t-388.5 -115q-230 0 -351.5 98t-137.5 262q-9 62 53 74l107 20q32 4 46 -3t17 -29z" />
<glyph unicode="4" horiz-adv-x="1150" d="M721 1182l-434 -607h434v607zM721 391h-619q-63 0 -63 66v26q0 64 35 113l598 834q37 53 102 53h117q63 0 63 -64v-844h78q29 0 41 -13.5t12 -41.5v-74q0 -55 -53 -55h-78v-328q0 -63 -63 -63h-107q-63 0 -63 63v328z" />
<glyph unicode="5" horiz-adv-x="1144" d="M188 1483h754q33 0 49.5 -17.5t16.5 -46.5v-78q0 -63 -66 -63h-586v-365q121 39 219 39q240 0 373 -128t133 -361q0 -221 -133 -350t-370 -129q-233 0 -356.5 104t-141.5 281q-6 55 55 65l94 17q33 6 49 -4.5t21 -38.5q13 -92 80.5 -153.5t185.5 -61.5q126 0 201.5 72.5 t75.5 207.5q0 138 -74 215.5t-221 77.5q-87 0 -164 -29q-42 -12 -63 -15t-66 -3h-68q-63 0 -63 63v633q0 31 16.5 49.5t48.5 18.5z" />
<glyph unicode="6" horiz-adv-x="1210" d="M637 1288q-68 0 -120.5 -19.5t-85.5 -57.5t-54.5 -83t-32.5 -109t-14.5 -120t-3.5 -131q19 24 44 45t66.5 45.5t103 39.5t132.5 15q97 0 181.5 -32t147 -90.5t98.5 -146t36 -191.5q0 -208 -137.5 -338.5t-376.5 -130.5q-125 0 -218 36.5t-153 101.5t-96.5 165t-51 214.5 t-14.5 262.5q0 111 9.5 201.5t32 176.5t63 149.5t99 112t143 73t192.5 24.5q108 1 192 -21.5t137 -59t89 -88.5t52 -105.5t21 -116.5q3 -30 -9 -47.5t-48 -24.5l-109 -20q-26 -4 -36.5 4.5t-12.5 28.5q-8 105 -71 171t-195 66zM610 735q-50 0 -95 -14.5t-74 -34.5 t-53.5 -46.5t-36 -44t-19.5 -34.5q16 -182 79.5 -275t204.5 -93q123 0 197 80t74 200q0 119 -78.5 190.5t-198.5 71.5z" />
<glyph unicode="7" horiz-adv-x="1001" d="M702 1274h-602q-35 0 -49 16t-14 47v82q0 64 63 64h820q57 0 57 -58v-14q0 -50 -21 -104l-477 -1248q-21 -59 -86 -59h-119q-30 0 -40 18t2 41z" />
<glyph unicode="8" horiz-adv-x="1249" d="M625 -16q-254 0 -400.5 116t-146.5 312q0 140 83 238.5t218 131.5q-110 31 -179 117t-69 217q0 168 134.5 276.5t361.5 108.5q226 0 359.5 -108.5t133.5 -276.5q0 -131 -69.5 -216t-178.5 -118q135 -33 217 -131.5t82 -238.5q0 -196 -146 -312t-400 -116zM926 457 q0 106 -80 174.5t-189 68.5h-77q-104 0 -180 -69.5t-76 -173.5q0 -122 84 -194.5t217 -72.5t217 72.5t84 194.5zM375 1083q0 -88 62 -145t151 -57h76q89 0 151 57t62 145q0 89 -70 151t-180 62q-111 0 -181.5 -62t-70.5 -151z" />
<glyph unicode="9" horiz-adv-x="1210" d="M573 195q59 0 105.5 15.5t79 41t56 66t36.5 82t21 98.5t11 106t3 113q-119 -148 -346 -148q-129 0 -234 55t-167 161t-62 245q0 208 137.5 338.5t376.5 130.5q125 0 218 -36.5t152 -101.5t95.5 -165t50.5 -214t14 -263q0 -135 -13.5 -240t-49.5 -200.5t-95.5 -158 t-154.5 -99t-223 -37.5q-453 -3 -492 374q-3 31 7.5 47t45.5 23l113 23q26 6 36.5 -2.5t12.5 -30.5q22 -223 266 -223zM600 748q50 0 94.5 14.5t74 35t54 46.5t36 44.5t18.5 33.5q-14 181 -78.5 274.5t-204.5 93.5q-123 0 -196.5 -80t-73.5 -200q0 -119 77.5 -190.5 t198.5 -71.5z" />
<glyph unicode=":" horiz-adv-x="512" d="M104 141q0 65 44 110.5t108 45.5t109 -45.5t45 -110.5q0 -63 -45 -107t-109 -44t-108 44t-44 107zM104 872q0 65 44 110.5t108 45.5t109 -45.5t45 -110.5q0 -63 -45 -107t-109 -44t-108 44t-44 107z" />
<glyph unicode=";" horiz-adv-x="516" d="M104 141q0 65 44 110.5t108 45.5t109 -45.5t45 -110.5v-141q0 -65 -11 -114.5t-35 -90t-68 -61.5t-106 -21l-30 2q-14 2 -20.5 8.5t-6.5 24.5v49q0 18 5 24t20 3q19 -4 35 -4q102 0 102 125v51q-18 -6 -39 -6q-64 0 -108 44t-44 107zM104 872q0 65 44 110.5t108 45.5 t109 -45.5t45 -110.5q0 -63 -45 -107t-109 -44t-108 44t-44 107z" />
<glyph unicode="&#x3c;" horiz-adv-x="1040" d="M104 653l795 484q19 12 37 3.5t18 -34.5v-90q0 -68 -55 -96l-647 -385l647 -383q55 -28 55 -97v-90q0 -27 -18 -35t-37 4l-795 484q-57 33 -57 98v39q0 65 57 98z" />
<glyph unicode="=" horiz-adv-x="1398" d="M176 1073h1047q65 0 65 -63v-52q0 -63 -65 -63h-1047q-65 0 -65 63v52q0 63 65 63zM176 571h1047q65 0 65 -65v-49q0 -64 -65 -64h-1047q-65 0 -65 64v49q0 65 65 65z" />
<glyph unicode="&#x3e;" horiz-adv-x="1040" d="M141 1137l795 -484q55 -31 55 -98v-39q0 -67 -55 -98l-795 -484q-19 -13 -37 -5t-18 36v90q0 68 53 97l649 383l-649 385q-53 32 -53 96v90q0 26 18 34.5t37 -3.5z" />
<glyph unicode="?" d="M569 358v-28q0 -15 -5 -21t-21 -6h-166q-25 0 -25 27v26q0 64 23.5 121.5t61.5 102t84 86t92 81.5t84 81t61.5 92.5t23.5 107.5q0 59 -15.5 105.5t-40.5 75.5t-58 47.5t-65.5 26t-65.5 7.5q-121 0 -192 -62.5t-81 -187.5q-3 -51 -61 -39l-103 21q-30 6 -42 22.5t-9 51.5 q13 188 135.5 295.5t362.5 107.5q75 0 142.5 -16t127.5 -51.5t103 -88t68.5 -129t25.5 -170.5q0 -73 -24.5 -138.5t-64 -115t-86.5 -95t-94.5 -85.5t-87 -78.5t-64 -83t-24.5 -90.5zM469 -96q-60 0 -101.5 42t-41.5 103t41.5 103.5t101.5 42.5t101.5 -42.5t41.5 -103.5 t-41.5 -103t-101.5 -42z" />
<glyph unicode="@" horiz-adv-x="1867" d="M1108 543v119q0 94 -42 144t-142 50q-157 0 -176 -133q-6 -38 -48 -33l-75 10q-44 5 -37 50q5 39 15.5 73t35 72.5t60.5 65.5t95 45t134 18q360 0 360 -338v-448q0 -91 84 -91q108 0 171 105t63 313q0 192 -86.5 336.5t-239.5 220.5t-352 76q-301 0 -488.5 -188.5 t-187.5 -505.5q0 -201 79 -355.5t231 -241.5t356 -87q182 0 309 37q30 7 44 0t23 -33l25 -66q18 -49 -41 -65q-144 -41 -360 -41q-260 0 -453 109t-293 301t-100 442q0 199 62.5 361.5t175.5 272t271 169t347 59.5q252 0 444.5 -94.5t301 -277t108.5 -429.5q0 -124 -24 -222 t-65 -163t-98.5 -108t-122.5 -61.5t-139 -18.5q-48 0 -86 12.5t-58.5 31t-34 36.5t-17.5 30l-4 13h-9q-7 -16 -21.5 -34t-41.5 -40t-73 -36.5t-103 -14.5q-150 0 -243 94t-93 235q0 139 97.5 230.5t252.5 91.5q86 0 138.5 -31t68.5 -67h2zM922 143q53 0 93.5 16.5t62 43.5 t32 56t10.5 60q2 66 -48 119.5t-150 53.5q-85 0 -136 -47.5t-51 -125.5t51.5 -127t135.5 -49z" />
<glyph unicode="A" horiz-adv-x="1144" d="M707 1421l389 -1358q8 -24 -4 -43.5t-41 -19.5h-117q-65 0 -78 61l-61 232h-445l-61 -232q-16 -61 -80 -61h-115q-29 0 -41 19t-4 44l389 1358q18 62 82 62h105q64 0 82 -62zM393 471h357l-177 690z" />
<glyph unicode="B" horiz-adv-x="1220" d="M596 0h-401q-30 0 -47 18t-17 45v1356q0 27 17 45.5t47 18.5h333q539 0 539 -377q0 -122 -55.5 -203t-155.5 -119q145 -33 229 -129.5t84 -244.5q0 -410 -573 -410zM944 422q0 129 -88 187.5t-258 58.5h-233v-471h231q348 0 348 225zM836 1061q0 223 -281 223h-190v-442 h172q135 0 217 55.5t82 163.5z" />
<glyph unicode="C" horiz-adv-x="1183" d="M963 524l94 -16q33 -6 46.5 -24t10.5 -54q-4 -78 -21 -141.5t-54 -121.5t-92 -97.5t-139.5 -62.5t-193.5 -23q-128 0 -221.5 33t-153 92.5t-95 155t-49 206t-13.5 260.5q0 96 6.5 177t22.5 161t42.5 143.5t67.5 118t96 91t130 57t167 20.5q113 0 200.5 -26t141.5 -67 t89.5 -101.5t50.5 -121.5t20 -134q3 -38 -10.5 -54t-46.5 -22l-98 -19q-65 -11 -68 37q-4 63 -20 114t-47.5 94t-85 67t-126.5 24q-66 0 -116 -20.5t-82 -61.5t-52.5 -88.5t-30 -117t-13 -129.5t-3.5 -142q0 -69 1.5 -118.5t6.5 -104.5t14.5 -93t24 -76.5t37 -63t52.5 -44.5 t70.5 -29t90.5 -9q137 0 201.5 73.5t77.5 204.5q3 29 21 44t49 9z" />
<glyph unicode="D" horiz-adv-x="1288" d="M532 0h-337q-30 0 -47 18t-17 45v1356q0 27 17 45.5t47 18.5h337q193 0 349.5 -95t247 -267.5t90.5 -389.5q0 -163 -53 -300.5t-144.5 -231.5t-218 -146.5t-271.5 -52.5zM981 731q0 242 -130 393.5t-339 151.5h-147v-1071h147q211 0 340 143t129 383z" />
<glyph unicode="E" horiz-adv-x="1116" d="M365 649v-444h622q31 0 47.5 -18t16.5 -48v-76q0 -63 -64 -63h-792q-30 0 -47 18t-17 45v1356q0 27 17 45.5t47 18.5h792q64 0 64 -64v-76q0 -30 -16.5 -47.5t-47.5 -17.5h-622v-426h499q32 0 49 -17t17 -47v-75q0 -30 -17 -47t-49 -17h-499z" />
<glyph unicode="F" horiz-adv-x="1058" d="M365 649v-586q0 -27 -18.5 -45t-45.5 -18h-106q-27 0 -45.5 18t-18.5 45v1356q0 26 19 45t45 19h747q32 0 49 -17t17 -47v-78q0 -30 -17 -46.5t-49 -16.5h-577v-426h503q64 0 64 -64v-75q0 -64 -64 -64h-503z" />
<glyph unicode="G" horiz-adv-x="1202" d="M899 578h-260q-31 0 -47.5 17t-16.5 48v47q0 30 17 47t47 17h414q30 0 47.5 -18t17.5 -46v-190q0 -85 -12.5 -155t-46.5 -139t-89 -116.5t-145.5 -76.5t-210.5 -29q-128 0 -221.5 33t-153 92.5t-95 155t-49 206t-13.5 260.5q0 96 6.5 177t22.5 161t42.5 143.5t67.5 118 t96 91t130 57t167 20.5q110 0 195.5 -24t140.5 -64.5t91.5 -100t53.5 -124t21 -142.5q3 -35 -9 -52t-46 -23l-92 -17q-67 -11 -70 43q-4 62 -20.5 112.5t-49 93t-87.5 66t-128 23.5q-57 0 -102 -16.5t-76 -43t-53 -70t-34.5 -87.5t-20 -105.5t-9.5 -114t-2 -122.5 q0 -69 1.5 -118.5t6.5 -104.5t14.5 -93t24 -76.5t37 -63t52.5 -44.5t70.5 -29t90.5 -9q82 0 139.5 22.5t88.5 65.5t44 94.5t13 118.5v84z" />
<glyph unicode="H" horiz-adv-x="1353" d="M1223 1417v-1351q0 -31 -17 -48.5t-49 -17.5h-104q-32 0 -49 17.5t-17 48.5v577h-622v-577q0 -31 -17 -48.5t-49 -17.5h-104q-31 0 -47.5 17.5t-16.5 48.5v1351q0 31 16.5 48.5t47.5 17.5h104q32 0 49 -17.5t17 -48.5v-569h622v569q0 31 17 48.5t49 17.5h104 q32 0 49 -17.5t17 -48.5z" />
<glyph unicode="I" horiz-adv-x="493" d="M365 1417v-1351q0 -31 -17 -48.5t-49 -17.5h-104q-32 0 -49 17.5t-17 48.5v1351q0 31 17 48.5t49 17.5h104q32 0 49 -17.5t17 -48.5z" />
<glyph unicode="J" horiz-adv-x="831" d="M193 193q153 0 218.5 73t65.5 221v930q0 66 64 66h104q32 0 49 -17.5t17 -48.5v-934q0 -93 -15 -168t-51 -138t-91.5 -105.5t-140 -66t-194.5 -23.5q-39 0 -127 10q-29 5 -46 23.5t-17 47.5v84q0 28 17 42.5t46 11.5q58 -8 101 -8z" />
<glyph unicode="K" horiz-adv-x="1200" d="M881 53l-375 529l-139 -185v-331q0 -31 -17 -48.5t-49 -17.5h-106q-31 0 -47.5 17.5t-16.5 48.5v1351q0 31 16.5 48.5t47.5 17.5h106q32 0 49 -17.5t17 -48.5v-682l501 697q38 51 103 51h153q24 0 31 -18t-6 -35l-500 -660l510 -717q13 -17 5 -35t-31 -18h-152 q-63 0 -100 53z" />
<glyph unicode="L" horiz-adv-x="966" d="M365 205h512q31 0 48 -18t17 -48v-76q0 -29 -17 -46t-48 -17h-682q-29 0 -46.5 17.5t-17.5 48.5v1351q0 31 16.5 48.5t47.5 17.5h104q32 0 49 -17.5t17 -48.5v-1212z" />
<glyph unicode="M" horiz-adv-x="1523" d="M1159 1061l-360 -520q-12 -20 -37.5 -20t-38.5 20l-358 520v-995q0 -31 -17 -48.5t-49 -17.5h-104q-31 0 -47.5 17.5t-16.5 48.5v1353q0 64 64 64h65q63 0 100 -53l402 -590l401 590q37 53 101 53h65q64 0 64 -64v-1353q0 -31 -16.5 -48.5t-47.5 -17.5h-104 q-32 0 -49 17.5t-17 48.5v995z" />
<glyph unicode="N" horiz-adv-x="1333" d="M1202 1417v-1351q0 -66 -63 -66h-99q-58 0 -96 63l-579 938v-935q0 -31 -17 -48.5t-49 -17.5h-104q-31 0 -47.5 17.5t-16.5 48.5v1353q0 29 16.5 46.5t47.5 17.5h57q35 0 54.5 -12.5t41.5 -43.5l621 -987v977q0 66 65 66h105q63 0 63 -66z" />
<glyph unicode="O" horiz-adv-x="1275" d="M637 -16q-289 0 -423 179t-134 572q0 394 135 579t422 185q288 0 422.5 -184.5t134.5 -579.5q0 -393 -133.5 -572t-423.5 -179zM637 193q169 0 245 128t76 414q0 290 -76.5 422.5t-244.5 132.5q-167 0 -243.5 -133t-76.5 -422q0 -285 76 -413.5t244 -128.5z" />
<glyph unicode="P" horiz-adv-x="1222" d="M952 1016q0 133 -93 196.5t-251 63.5h-243v-522h251q155 0 245.5 63.5t90.5 198.5zM365 547v-481q0 -31 -17 -48.5t-49 -17.5h-104q-31 0 -47.5 17.5t-16.5 48.5v1353q0 28 17 46t47 18h417q564 0 564 -471q0 -229 -155 -347t-413 -118h-243z" />
<glyph unicode="Q" horiz-adv-x="1269" d="M551 -10q-243 23 -357 202.5t-114 542.5q0 395 133.5 579.5t421.5 184.5t422.5 -184.5t134.5 -579.5q0 -362 -112 -540t-355 -203q25 -165 240 -178q65 -3 65 -70v-68q0 -62 -69 -59q-188 9 -292.5 112t-117.5 261zM635 193q167 0 243 128.5t76 413.5q0 289 -76 422 t-243 133t-243.5 -133t-76.5 -422q0 -285 76 -413.5t244 -128.5z" />
<glyph unicode="R" horiz-adv-x="1218" d="M942 1016q0 133 -93 196.5t-251 63.5h-233v-514h241q155 0 245.5 62t90.5 192zM365 567v-504q0 -29 -16.5 -46t-47.5 -17h-106q-31 0 -47.5 17t-16.5 46v1356q0 28 17 46t47 18h407q563 0 563 -471q0 -156 -80 -258t-223 -146l258 -551q11 -20 1 -38.5t-38 -18.5h-108 q-66 0 -92 57l-242 510h-276z" />
<glyph unicode="S" horiz-adv-x="1128" d="M819 401q0 54 -25 95t-67.5 68.5t-98 50t-116.5 43.5t-121.5 44t-116 57t-98 78t-67.5 110.5t-25 150.5q0 74 27 143t81 128t147.5 94.5t213.5 35.5q226 0 350.5 -100.5t143.5 -274.5q3 -29 -12 -49t-46 -24l-96 -15q-60 -9 -66 39q-11 103 -78.5 162t-191.5 59 q-121 0 -180.5 -57t-59.5 -145q0 -49 25.5 -87.5t68 -65t98 -49t117 -45t123 -48t117 -62.5t98 -84t68 -117t25.5 -157q0 -83 -26.5 -151t-83.5 -124.5t-157 -88.5t-237 -33q-94 -1 -171.5 18t-131 52t-93 79.5t-61 97t-30.5 107.5q-5 26 7 47t42 27l96 16q66 12 72 -43 q13 -86 80.5 -142.5t193.5 -56.5q76 0 130 18.5t81.5 51.5t39 68.5t11.5 78.5z" />
<glyph unicode="T" horiz-adv-x="1081" d="M94 1483h895q31 0 47.5 -17.5t16.5 -46.5v-76q0 -30 -16.5 -47.5t-47.5 -17.5h-332v-1215q0 -29 -16 -46t-47 -17h-107q-31 0 -47 17t-16 46v1215h-330q-65 0 -65 65v76q0 29 16.5 46.5t48.5 17.5z" />
<glyph unicode="U" horiz-adv-x="1284" d="M354 1419v-880q0 -158 74 -252t213 -94t214 93.5t75 252.5v880q0 28 16 46t47 18h107q31 0 47 -17.5t16 -46.5v-903q0 -123 -29.5 -219t-91 -167t-163 -108.5t-238.5 -37.5q-520 0 -520 532v903q0 29 16 46.5t47 17.5h107q31 0 47 -17.5t16 -46.5z" />
<glyph unicode="V" horiz-adv-x="1183" d="M449 59l-406 1362q-6 25 6 43.5t41 18.5h133q63 0 80 -58l297 -1093l295 1085q19 66 82 66h117q28 0 39.5 -18.5t5.5 -41.5l-404 -1364q-17 -59 -82 -59h-123q-64 0 -81 59z" />
<glyph unicode="W" horiz-adv-x="1845" d="M1790 1421l-334 -1360q-14 -61 -78 -61h-121q-32 0 -52.5 18.5t-26.5 47.5l-250 1091l-254 -1091q-6 -29 -27 -47.5t-53 -18.5h-117q-66 0 -80 61l-350 1360q-6 25 7 43.5t42 18.5h121q63 0 78 -64l254 -1087l252 1091q13 60 78 60h79q34 0 55 -18t27 -46l273 -1087 l239 1087q15 64 76 64h113q29 0 42 -18.5t7 -43.5z" />
<glyph unicode="X" horiz-adv-x="1169" d="M584 549l-277 -494q-30 -55 -96 -55h-137q-26 0 -35 19t2 36l391 682l-383 690q-12 19 -2.5 37.5t35.5 18.5h139q65 0 94 -56l269 -499l268 497q30 58 94 58h137q28 0 37.5 -18.5t-2.5 -37.5l-385 -692l391 -678q12 -19 4.5 -38t-34.5 -19h-138q-66 0 -96 55z" />
<glyph unicode="Y" horiz-adv-x="1175" d="M705 573v-510q0 -29 -17.5 -46t-48.5 -17h-104q-31 0 -48.5 17t-17.5 46v508l-408 852q-12 22 -1.5 41t38.5 19h129q61 0 88 -60l281 -604l281 606q27 58 90 58h112q28 0 38 -19t-1 -39z" />
<glyph unicode="Z" d="M127 1483h807q31 0 48 -17.5t17 -46.5v-63q0 -61 -34 -117l-629 -1034h600q31 0 47 -18t16 -48v-76q0 -29 -16 -46t-47 -17h-807q-31 0 -48.5 17t-17.5 46v60q0 58 35 119l623 1036h-594q-64 0 -64 63v78q0 29 16.5 46.5t47.5 17.5z" />
<glyph unicode="[" horiz-adv-x="772" d="M350 117h305q33 0 49.5 -18t16.5 -48v-76q0 -29 -16.5 -46t-49.5 -17h-475q-30 0 -46.5 17.5t-16.5 45.5v1565q0 29 16.5 46.5t46.5 17.5h475q33 0 49.5 -17.5t16.5 -46.5v-76q0 -65 -66 -65h-305v-1282z" />
<glyph unicode="\" horiz-adv-x="1234" d="M922 55l-854 1372q-13 20 -5 38t35 18h115q66 0 98 -56l854 -1372q12 -19 4 -37t-34 -18h-115q-65 0 -98 55z" />
<glyph unicode="]" horiz-adv-x="772" d="M117 117h307v1282h-307q-31 0 -47.5 17.5t-16.5 47.5v76q0 29 16.5 46.5t47.5 17.5h477q29 0 46 -18t17 -46v-1565q0 -28 -17 -45.5t-46 -17.5h-477q-31 0 -47.5 17t-16.5 46v76q0 30 16.5 48t47.5 18z" />
<glyph unicode="^" horiz-adv-x="755" d="M522 1460l137 -268q23 -45 -22 -45h-72q-24 0 -37.5 9.5t-29.5 33.5l-119 178l-119 -180q-16 -24 -29 -32.5t-36 -8.5h-72q-47 0 -25 45l138 268q22 43 69 43h146q49 0 71 -43z" />
<glyph unicode="_" horiz-adv-x="1230" d="M166 -23h899q65 0 65 -63v-49q0 -66 -65 -66h-899q-66 0 -66 66v49q0 63 66 63z" />
<glyph unicode="`" horiz-adv-x="866" d="M410 1225l-195 282q-10 15 -3.5 26t28.5 11h170q46 0 59 -39l121 -282q7 -13 1.5 -24t-22.5 -11h-96q-40 0 -63 37z" />
<glyph unicode="a" horiz-adv-x="1024" d="M678 541h6v123q0 85 -52 133.5t-157 48.5q-52 0 -90 -10.5t-59 -29t-32 -37t-18 -42.5q-7 -26 -19.5 -33t-37.5 -2l-88 17q-31 6 -39.5 18t-5.5 39q5 38 17.5 71t41 69.5t70 62t109.5 42.5t155 17q114 0 197 -26t130 -73t69 -106t22 -133v-454q0 -36 14 -51t45 -15l23 2 q13 3 17.5 -3.5t4.5 -21.5v-86q0 -33 -14 -47.5t-47 -19.5q-36 -4 -68 -4q-77 0 -116 38.5t-39 84.5v4h-8q0 -2 -7.5 -14t-27.5 -31.5t-49 -37.5t-79.5 -31t-111.5 -13q-172 0 -270 91t-98 226q0 129 101.5 219t274.5 90q78 0 137 -19t79 -37zM690 307q0 69 -55.5 111.5 t-169.5 42.5q-89 0 -143 -45t-54 -109q0 -61 54 -105t143 -44q111 0 168 41.5t57 107.5z" />
<glyph unicode="b" horiz-adv-x="1034" d="M115 66v1372q0 65 63 65h84q66 0 66 -65v-527h8q16 42 77 79.5t165 37.5q383 0 383 -518q0 -259 -98 -389.5t-283 -130.5q-107 0 -173 41.5t-83 83.5h-9v-62q0 -53 -53 -53h-84q-30 0 -46.5 17.5t-16.5 48.5zM307 510q0 -172 53 -256t177 -84q111 0 162 83t51 257 t-50.5 254t-162.5 80q-121 0 -175.5 -83t-54.5 -251z" />
<glyph unicode="c" horiz-adv-x="983" d="M772 377l82 -12q38 -6 51 -24t8 -54q-8 -67 -31 -118t-67.5 -93t-121.5 -64t-183 -22q-223 0 -329.5 121.5t-106.5 392.5q0 275 106.5 399.5t329.5 124.5q374 0 403 -303q3 -35 -7.5 -52.5t-49.5 -25.5l-80 -12q-55 -8 -61 39q-10 78 -59 125t-146 47q-113 0 -167 -80 t-54 -262q0 -175 55 -254.5t168 -79.5q100 0 146 41.5t57 124.5q3 25 15.5 35t41.5 6z" />
<glyph unicode="d" horiz-adv-x="1036" d="M727 510q0 168 -54.5 251t-174.5 83q-112 0 -162.5 -80t-50.5 -254t51 -257t162 -83q124 0 176.5 84t52.5 256zM709 911v527q0 65 63 65h84q66 0 66 -65v-1372q0 -31 -17 -48.5t-49 -17.5h-82q-55 0 -55 53v62h-6q-17 -42 -83.5 -83.5t-174.5 -41.5q-185 0 -282 130 t-97 390q0 262 95 390t286 128q105 0 165 -37t78 -80h9z" />
<glyph unicode="e" horiz-adv-x="987" d="M776 317l74 -10q38 -4 50.5 -21t4.5 -50q-26 -111 -125.5 -178.5t-269.5 -67.5q-225 0 -330.5 120.5t-105.5 391.5q0 274 107 400t329 126q94 0 164 -23.5t114.5 -64t72 -103.5t39 -133t13.5 -161q0 -36 -12 -51t-53 -15h-559q4 -163 58 -235t165 -72q161 0 205 104 q11 27 23.5 36.5t35.5 6.5zM514 856q-100 0 -153 -57.5t-66 -184.5h424q-5 118 -50.5 180t-154.5 62z" />
<glyph unicode="f" horiz-adv-x="690" d="M182 840h-76q-65 0 -65 63v49q0 30 16.5 47t48.5 17h76v139q0 83 18.5 145.5t61 110.5t117 73t180.5 25l84 -6q33 -7 47.5 -21t14.5 -48v-54q0 -40 -15 -51t-49 -6q-26 4 -53 4q-102 0 -147.5 -44t-45.5 -134v-133h205q66 0 66 -64v-49q0 -63 -66 -63h-205v-774 q0 -66 -65 -66h-84q-31 0 -47.5 17.5t-16.5 48.5v774z" />
<glyph unicode="g" horiz-adv-x="1036" d="M727 510q0 168 -54.5 251t-174.5 83q-114 0 -164.5 -79.5t-50.5 -254.5t50.5 -257.5t164.5 -82.5q124 0 176.5 84t52.5 256zM920 950v-1042q0 -338 -408 -338q-89 0 -158 15.5t-110 39t-69.5 56.5t-40.5 61.5t-17 60.5q-12 67 59 76l72 10q27 3 40 -6.5t21 -36.5 q31 -116 203 -116q205 0 205 182v188h-10q-16 -39 -79 -74.5t-167 -35.5q-191 0 -289 130t-98 390q0 262 98 390t299 128q103 0 169 -41t83 -82h10v60q0 51 55 51h68q31 0 47.5 -17.5t16.5 -48.5z" />
<glyph unicode="h" d="M954 676v-610q0 -66 -63 -66h-84q-31 0 -47.5 17.5t-16.5 48.5v567q0 213 -202 213q-57 0 -100.5 -20.5t-66.5 -53.5t-34.5 -68t-11.5 -71v-567q0 -31 -16.5 -48.5t-47.5 -17.5h-84q-30 0 -46.5 17.5t-16.5 48.5v1357q0 66 63 66h80q31 0 47.5 -17.5t16.5 -48.5v-532h6 q4 14 18.5 33.5t44 44.5t84.5 42t125 17q93 0 162.5 -28t110 -78t60 -111.5t19.5 -134.5z" />
<glyph unicode="i" horiz-adv-x="444" d="M74 1313q0 60 41.5 100.5t101.5 40.5t100.5 -40.5t40.5 -100.5q0 -58 -40.5 -97.5t-100.5 -39.5t-101.5 39.5t-41.5 97.5zM328 950v-884q0 -31 -16.5 -48.5t-47.5 -17.5h-84q-30 0 -46.5 17.5t-16.5 48.5v884q0 66 63 66h84q31 0 47.5 -17.5t16.5 -48.5z" />
<glyph unicode="j" horiz-adv-x="444" d="M76 1313q0 60 40.5 100.5t100.5 40.5t101.5 -40.5t41.5 -100.5q0 -58 -41.5 -97.5t-101.5 -39.5t-100.5 39.5t-40.5 97.5zM-139 -424q-68 11 -68 74v55q0 61 66 53q45 -6 80 -6q97 0 137.5 45.5t40.5 145.5v1007q0 66 63 66h82q32 0 49 -17.5t17 -48.5v-1011 q0 -87 -18 -152t-58.5 -115.5t-112.5 -76t-174 -25.5q-74 0 -104 6z" />
<glyph unicode="k" horiz-adv-x="995" d="M913 0h-122q-37 0 -63.5 16t-53.5 50l-244 299l-102 -121v-178q0 -31 -16.5 -48.5t-47.5 -17.5h-84q-30 0 -46.5 17.5t-16.5 48.5v1372q0 65 63 65h84q31 0 47.5 -17t16.5 -48v-916l354 428q30 36 56 51t63 15h121q31 0 33.5 -17t-25.5 -49l-369 -432l367 -457 q25 -28 21.5 -44.5t-36.5 -16.5z" />
<glyph unicode="l" horiz-adv-x="475" d="M324 1438v-1211q0 -30 13.5 -43.5t43.5 -13.5l22 2q12 3 18.5 -4t6.5 -21v-90q0 -32 -13.5 -45t-47.5 -18q-35 -4 -64 -4q-190 0 -190 182v1266q0 65 63 65h84q31 0 47.5 -17t16.5 -48z" />
<glyph unicode="m" horiz-adv-x="1679" d="M602 1028q224 0 311 -164q36 66 112 115t194 49q93 0 162.5 -28t110 -77.5t60 -111t19.5 -135.5v-610q0 -66 -64 -66h-84q-30 0 -46.5 17.5t-16.5 48.5v569q0 92 -46.5 151.5t-156.5 59.5q-81 0 -131.5 -39t-71.5 -98v-643q0 -66 -63 -66h-84q-31 0 -47.5 17.5 t-16.5 48.5v569q0 211 -202 211q-56 0 -99 -20t-66.5 -52.5t-35 -66.5t-12.5 -68v-573q0 -31 -16.5 -48.5t-47.5 -17.5h-84q-30 0 -46.5 17.5t-16.5 48.5v884q0 66 63 66h62q63 0 63 -70v-78h8q6 18 22 40t48 51.5t89.5 49t129.5 19.5z" />
<glyph unicode="n" d="M305 868h8q6 18 22 40t48 51.5t89.5 49t129.5 19.5q93 0 162.5 -28t110 -77.5t60 -111t19.5 -135.5v-610q0 -66 -63 -66h-84q-31 0 -47.5 17.5t-16.5 48.5v569q0 211 -202 211q-55 0 -98 -18.5t-67 -49.5t-36 -65t-12 -70v-577q0 -31 -16.5 -48.5t-47.5 -17.5h-84 q-30 0 -46.5 17.5t-16.5 48.5v884q0 66 63 66h62q63 0 63 -66v-82z" />
<glyph unicode="o" horiz-adv-x="1017" d="M510 -10q-225 0 -330.5 122.5t-105.5 391.5q0 270 106 397t330 127t328 -126.5t104 -397.5q0 -269 -103.5 -391.5t-328.5 -122.5zM510 170q114 0 166.5 79.5t52.5 254.5q0 178 -52.5 259t-166.5 81q-116 0 -168.5 -81t-52.5 -259q0 -175 52.5 -254.5t168.5 -79.5z" />
<glyph unicode="p" horiz-adv-x="1036" d="M328 106v-446q0 -31 -16.5 -48.5t-47.5 -17.5h-84q-30 0 -46.5 17.5t-16.5 48.5v1292q0 66 63 66h72q65 0 65 -57v-60h9q15 42 81.5 85.5t174.5 43.5q185 0 282 -131.5t97 -390.5q0 -263 -95 -390.5t-286 -127.5q-106 0 -166 37t-76 79h-10zM309 506q0 -169 54.5 -252.5 t175.5 -83.5q112 0 162.5 81t50.5 255q0 173 -51 255.5t-162 82.5q-124 0 -177 -83.5t-53 -254.5z" />
<glyph unicode="q" horiz-adv-x="1034" d="M922 950v-1290q0 -31 -17 -48.5t-49 -17.5h-84q-30 0 -46.5 17.5t-16.5 48.5v444h-9q-18 -43 -77.5 -78.5t-165.5 -35.5q-191 0 -286 127.5t-95 388.5q0 260 97 391t282 131q108 0 174.5 -42.5t83.5 -84.5h6v60q0 55 65 55h72q32 0 49 -17.5t17 -48.5zM727 504 q0 172 -52.5 256t-176.5 84q-111 0 -162 -83t-51 -257t50.5 -254t162.5 -80q120 0 174.5 83t54.5 251z" />
<glyph unicode="r" horiz-adv-x="735" d="M117 66v884q0 66 63 66h62q30 0 46.5 -17.5t16.5 -48.5v-123h8q4 15 13.5 34t34.5 50.5t57 56t87 42.5t120 18l26 -2q29 -4 36 -16.5t7 -51.5v-67q0 -41 -11.5 -54t-37.5 -10q-23 2 -41 2q-64 0 -114 -18.5t-80 -48.5t-49 -72.5t-26 -85t-7 -90.5v-448q0 -31 -16.5 -48.5 t-47.5 -17.5h-84q-30 0 -46.5 17.5t-16.5 48.5z" />
<glyph unicode="s" horiz-adv-x="937" d="M655 285q0 40 -32 68.5t-82.5 46t-112 33.5t-123.5 38t-112.5 53t-82.5 86t-32 129q0 53 22.5 102.5t66 92t119.5 68.5t173 26q339 0 397 -233q9 -38 -2.5 -54t-52.5 -22l-76 -12q-33 -6 -46.5 2t-19.5 32q-30 113 -194 113q-89 0 -132.5 -33t-43.5 -84q0 -37 32 -63.5 t83 -44t112.5 -35t123.5 -42.5t113 -59t83 -92t32 -135q0 -59 -21.5 -107t-67.5 -87t-127.5 -61t-192.5 -23q-172 -3 -266.5 61.5t-120.5 165.5q-8 34 3 51t52 23l76 10q31 4 43.5 -4t19.5 -29q33 -104 199 -104q190 0 190 123z" />
<glyph unicode="t" horiz-adv-x="716" d="M387 840v-471q0 -99 40.5 -149t129.5 -50l53 4q34 3 48 -6t14 -43v-59q0 -35 -14 -50t-50 -20q-33 -6 -76 -6q-195 0 -276.5 82t-81.5 239v529h-76q-65 0 -65 65v45q0 66 65 66h76v207q0 31 16.5 48t47.5 17h84q65 0 65 -65v-207h231q33 0 49.5 -18t16.5 -48v-45 q0 -65 -66 -65h-231z" />
<glyph unicode="u" d="M322 950v-567q0 -213 198 -213q56 0 99.5 20.5t67 53t35 67t11.5 68.5v571q0 31 17 48.5t49 17.5h82q65 0 65 -66v-884q0 -66 -65 -66h-60q-31 0 -48 17.5t-17 48.5v84h-8q-3 -11 -12.5 -27t-32.5 -40.5t-53.5 -44t-80.5 -34t-110 -14.5q-92 0 -161.5 28t-109.5 77 t-59.5 110.5t-19.5 134.5v610q0 31 16.5 48.5t46.5 17.5h84q32 0 49 -17.5t17 -48.5z" />
<glyph unicode="v" horiz-adv-x="983" d="M930 950l-301 -887q-21 -63 -88 -63h-99q-31 0 -54 17t-32 46l-303 889q-20 64 43 64h109q66 0 84 -66l209 -659l211 659q11 34 31 50t55 16h92q64 0 43 -66z" />
<glyph unicode="w" horiz-adv-x="1509" d="M758 737l-187 -676q-9 -34 -28 -47.5t-54 -13.5h-92q-35 0 -54 15t-28 48l-260 889q-11 35 -0.5 49.5t47.5 14.5h99q62 0 80 -66l176 -657l178 657q18 66 84 66h63q64 0 86 -66l197 -657l166 657q13 66 80 66h88q65 0 47 -66l-246 -893q-15 -57 -80 -57h-96q-67 0 -82 61 z" />
<glyph unicode="x" horiz-adv-x="972" d="M485 330q-27 -50 -178 -264q-27 -36 -51.5 -51t-60.5 -15h-111q-32 0 -38 17.5t15 48.5l293 434l-291 450q-43 66 25 66h113q61 0 106 -66l180 -276l179 274q44 68 106 68h113q33 0 39 -17t-15 -49l-291 -450l293 -434q21 -26 17 -46t-37 -20h-111q-66 0 -112 66z" />
<glyph unicode="y" horiz-adv-x="983" d="M930 950l-301 -880l-78 -242q-45 -133 -117.5 -196.5t-197.5 -63.5l-93 6q-32 3 -46.5 18.5t-14.5 49.5v63q0 35 13 43.5t46 5.5q25 -4 66 -4q71 0 107.5 29.5t58.5 91.5l43 131q-44 12 -60 61l-303 889q-20 64 43 64h111q61 0 82 -66l211 -659l211 659q11 35 30 50.5 t54 15.5h92q66 0 43 -66z" />
<glyph unicode="z" horiz-adv-x="901" d="M104 207l463 631h-432q-29 0 -46 15.5t-17 43.5v53q0 66 63 66h631q63 0 63 -66v-41q0 -57 -38 -108l-463 -625h438q65 0 65 -63v-47q0 -66 -65 -66h-631q-30 0 -46.5 17.5t-16.5 48.5v43q0 57 32 98z" />
<glyph unicode="{" horiz-adv-x="757" d="M231 225v172q0 101 -44.5 161.5t-106.5 82.5q-37 15 -50.5 35.5t-13.5 58.5v66q0 38 13.5 58.5t50.5 35.5q63 22 107 82t44 162v172q0 91 26 163.5t67.5 118t98.5 77.5t111.5 46t114.5 19q64 3 64 -60v-86q0 -30 -11 -43t-36 -16q-35 -4 -65.5 -14.5t-63.5 -34t-52.5 -69 t-19.5 -109.5v-187q0 -69 -16 -127t-40 -95t-55 -65t-56.5 -41.5t-49.5 -19.5q24 -7 49.5 -20.5t56.5 -42t55 -65.5t40 -95t16 -127v-185q0 -63 19 -109t51.5 -70t63.5 -35.5t67 -14.5q27 -3 37 -16.5t10 -42.5v-84q0 -28 -16 -45.5t-48 -14.5q-57 4 -110 17t-111 43.5 t-100 75.5t-69.5 119.5t-27.5 168.5z" />
<glyph unicode="|" horiz-adv-x="458" d="M342 1593v-1876q0 -63 -63 -63h-97q-65 0 -65 63v1876q0 29 16.5 46.5t48.5 17.5h97q63 0 63 -64z" />
<glyph unicode="}" horiz-adv-x="757" d="M526 397v-172q0 -94 -27.5 -168.5t-69 -119.5t-99.5 -75.5t-110 -43.5t-109 -17q-33 -3 -48.5 14t-15.5 46v84q0 29 9 42.5t36 16.5q36 3 67 14.5t63.5 35.5t51.5 70t19 109v185q0 69 16 127t40 95t55 65.5t57 42t51 20.5q-32 8 -65.5 29t-70 60t-60 106.5t-23.5 152.5 v187q0 64 -19.5 109.5t-52.5 69t-63.5 34t-65.5 14.5q-25 3 -35 16t-10 43v86q0 63 62 60q60 -5 114.5 -19t111 -46t98 -77.5t67.5 -118t26 -163.5v-172q0 -102 44.5 -162t107.5 -82q36 -15 49.5 -35t13.5 -59v-66q0 -39 -13.5 -59t-49.5 -35q-62 -22 -107 -82.5t-45 -161.5 z" />
<glyph unicode="~" horiz-adv-x="1042" d="M842 823h67q20 0 28.5 -6t6.5 -20q-5 -33 -19.5 -66t-42.5 -68t-79 -57t-117 -22q-53 0 -103.5 20t-83.5 43.5t-77 43.5t-86 20t-65 -22t-31 -50q-6 -21 -33 -21h-68q-21 0 -29 7.5t-6 21.5q3 33 17 65.5t39.5 64.5t71 51.5t102.5 19.5q49 0 98 -20t83.5 -43.5 t80.5 -43.5t88 -20q50 0 81 25t42 57q3 12 9.5 16t25.5 4z" />
<glyph unicode="&#xa1;" horiz-adv-x="419" d="M102 -426l35 1024q3 55 56 55h32q53 0 56 -59l38 -1016q2 -29 -14 -47t-47 -18h-90q-33 0 -50.5 16.5t-15.5 44.5zM207 1026q50 0 84.5 -35t34.5 -86t-34.5 -86t-84.5 -35q-51 0 -85 35t-34 86t34 86t85 35z" />
<glyph unicode="&#xa2;" horiz-adv-x="1181" d="M1106 492q-13 -187 -107 -295t-292 -129v-125q0 -56 -56 -56h-84q-53 0 -53 56v123q-106 10 -183 46.5t-126 91.5t-78 137.5t-40 175t-11 214.5q0 108 10.5 194.5t40 169t77.5 139.5t126.5 96t183.5 50v140q0 55 53 55h84q56 0 56 -55v-140q375 -40 403 -424 q3 -36 -10 -52.5t-49 -22.5l-88 -17q-35 -6 -51 2.5t-17 36.5q-8 101 -61.5 173t-151.5 93v-890q100 18 152 85.5t57 167.5q2 31 17.5 42.5t49.5 5.5l89 -15q65 -12 59 -73zM311 731q0 -59 1.5 -100.5t6.5 -89t14.5 -80t26.5 -65.5t40.5 -54.5t57 -37.5t77.5 -23v888 q-50 -9 -88 -31t-62 -56.5t-39.5 -71.5t-22.5 -88t-9.5 -92.5t-2.5 -98.5z" />
<glyph unicode="&#xa3;" horiz-adv-x="1181" d="M389 1036q0 -29 5.5 -60.5t12 -55t21.5 -61t22.5 -55t28 -61t27.5 -57.5h313q66 0 66 -61v-47q0 -62 -66 -62h-250q17 -66 17 -119q0 -121 -68 -192h471q30 0 47 -18t17 -48v-76q0 -28 -17 -45.5t-47 -17.5h-835q-64 0 -64 47v64q0 18 4.5 29.5t14.5 16.5t15 6.5t15 2.5 q92 10 151.5 65t59.5 158q0 55 -20 127h-185q-63 0 -63 62v47q0 61 63 61h121q-3 7 -16 36.5t-16.5 38t-15 36t-15.5 39t-13 36.5t-12.5 39.5t-9 37.5t-8 40t-4.5 37.5t-2 40.5q0 195 127.5 313.5t355.5 118.5q83 1 158 -15t140.5 -49.5t114 -90.5t70.5 -134q6 -21 -6 -39.5 t-39 -25.5l-82 -25q-29 -9 -46 -3.5t-27 28.5q-32 66 -101 105.5t-153 39.5q-144 0 -210.5 -69.5t-66.5 -184.5z" />
<glyph unicode="&#xa4;" horiz-adv-x="1454" d="M725 1186q177 0 313 -84l168 168q45 49 92 2l31 -31q23 -23 23 -47.5t-19 -42.5l-166 -168q107 -142 107 -346q0 -191 -100 -334l167 -166q21 -21 21 -45t-23 -45l-32 -31q-48 -45 -93 0l-165 166q-136 -88 -324 -88q-186 0 -319 88l-166 -168q-19 -21 -45 -22t-48 20 l-30 33q-45 45 -4 90l168 168q-99 135 -99 334q0 205 105 344l-168 170q-21 19 -21 43t23 47l33 31q46 44 92 -2l168 -170q131 86 311 86zM367 637q0 -164 97.5 -261t260.5 -97q166 0 265.5 97t99.5 261q0 167 -99.5 265.5t-265.5 98.5q-163 0 -260.5 -98.5t-97.5 -265.5z " />
<glyph unicode="&#xa5;" horiz-adv-x="1208" d="M193 393h294v146h-294q-64 0 -64 53v51q0 53 64 53h235l-348 727q-12 22 -1.5 41t38.5 19h129q61 0 88 -60l280 -604l281 606q27 58 90 58h113q28 0 38 -19t-1 -39l-353 -729h219q62 0 62 -53v-51q0 -53 -62 -53h-278v-146h278q62 0 62 -53v-51q0 -53 -62 -53h-278v-173 q0 -29 -17.5 -46t-48.5 -17h-104q-31 0 -48.5 17t-17.5 46v173h-294q-64 0 -64 53v51q0 53 64 53z" />
<glyph unicode="&#xa6;" horiz-adv-x="464" d="M342 1589v-743q0 -30 -16.5 -48t-49.5 -18h-88q-65 0 -65 66v743q0 29 16.5 46.5t48.5 17.5h88q33 0 49.5 -17.5t16.5 -46.5zM342 467v-748q0 -29 -16.5 -46t-49.5 -17h-88q-65 0 -65 63v748q0 63 65 63h88q33 0 49.5 -17t16.5 -46z" />
<glyph unicode="&#xa7;" horiz-adv-x="1159" d="M1069 379q0 -125 -55 -211q55 -86 55 -213q0 -82 -27 -151t-83.5 -125.5t-156.5 -88.5t-235 -32q-121 -1 -213.5 29.5t-148 83.5t-86 113.5t-41.5 131.5q-9 59 59 70l90 16q37 6 51.5 -2t18.5 -37q15 -93 81 -148t191 -55q77 0 131.5 19t82 52t39.5 68.5t12 77.5 q0 53 -25 94t-68 67.5t-98.5 49t-116.5 43t-122 43.5t-116.5 56t-98.5 75.5t-68 107t-25 146.5q0 117 74 213q-74 90 -74 226q0 73 27 141.5t80.5 128t147 95.5t214.5 36q227 0 351.5 -100.5t144.5 -274.5q3 -33 -9 -50t-48 -23l-103 -17q-56 -8 -59 39q-11 105 -79 164 t-194 59q-121 0 -179 -57.5t-58 -144.5q0 -48 25 -85.5t68 -63.5t98 -49t116 -45.5t122.5 -48.5t116.5 -63.5t98 -84.5t68 -117.5t25 -157.5zM834 401q0 63 -30 109t-86 77t-113.5 53t-134 51.5t-126.5 58.5q-12 -32 -12 -80q0 -58 30.5 -101t85.5 -72.5t113 -52t134 -54.5 t128 -64q11 46 11 75z" />
<glyph unicode="&#xa8;" horiz-adv-x="1112" d="M190 1307q0 53 36.5 90t90.5 37q53 0 90 -37t37 -90q0 -52 -37 -88.5t-90 -36.5q-54 0 -90.5 36t-36.5 89zM627 1307q0 53 37.5 90t89.5 37q54 0 90.5 -37t36.5 -90t-36.5 -89t-90.5 -36q-53 0 -90 36.5t-37 88.5z" />
<glyph unicode="&#xa9;" horiz-adv-x="1351" d="M672 1108q-212 0 -337.5 -128.5t-125.5 -342.5q0 -212 125.5 -338.5t337.5 -126.5q214 0 341.5 126.5t127.5 338.5q0 214 -127.5 342.5t-341.5 128.5zM672 57q-267 0 -428.5 159t-161.5 421q0 264 161.5 425t428.5 161q269 0 432.5 -161t163.5 -425q0 -262 -163.5 -421 t-432.5 -159zM666 381q110 0 122 123q2 14 9.5 18.5t25.5 1.5l66 -10q19 -3 24.5 -13t4.5 -36q-3 -42 -16.5 -76.5t-41 -65.5t-77.5 -49t-117 -18q-145 0 -206 93.5t-61 281.5q0 68 6.5 122t24.5 105t47.5 84.5t77.5 53.5t113 20q229 0 252 -205q1 -29 -6 -39.5t-31 -15.5 l-58 -11q-19 -3 -27.5 1.5t-9.5 17.5q-7 56 -35.5 92.5t-84.5 36.5q-41 0 -68.5 -21.5t-40.5 -61.5t-17.5 -81.5t-4.5 -97.5q0 -77 10.5 -129.5t40 -86.5t78.5 -34z" />
<glyph unicode="&#xaa;" horiz-adv-x="792" d="M483 1174h4v83q0 97 -129 97q-101 0 -122 -58q-5 -15 -11.5 -20t-25.5 -2l-72 12q-45 8 -39 47q30 168 272 168q293 0 293 -227v-291q0 -24 9 -34.5t30 -10.5l17 2q9 3 11.5 -1t2.5 -17v-74q0 -35 -33 -41q-32 -6 -61 -6q-58 0 -88.5 26.5t-32.5 59.5v2h-4 q-3 -6 -6 -11.5t-18 -21t-33.5 -26t-52.5 -20t-75 -9.5q-114 0 -179.5 61.5t-65.5 153.5q0 87 67.5 148t182.5 61q54 0 93.5 -12.5t52.5 -25.5zM475 1016q0 40 -32 64t-99 24q-51 0 -82 -25.5t-31 -62.5q0 -35 31 -60.5t82 -25.5q65 0 98 24t33 62z" />
<glyph unicode="&#xab;" horiz-adv-x="1212" d="M1065 829l-307 -196l307 -199q51 -38 51 -98v-64q0 -25 -18 -33t-35 5l-416 268q-53 37 -53 98v41q0 66 53 101l416 268q19 13 36 4t17 -35v-61q0 -61 -51 -99zM520 829l-305 -198l305 -199q51 -36 51 -98v-62q0 -26 -17 -34t-36 4l-412 270q-53 35 -53 98v41 q0 66 53 101l412 266q19 13 36 4.5t17 -33.5v-61q0 -66 -51 -99z" />
<glyph unicode="&#xac;" horiz-adv-x="1335" d="M1028 870h-901q-66 0 -66 66v49q0 64 66 64h1028q66 0 66 -64v-522q0 -66 -66 -66h-61q-66 0 -66 64v409z" />
<glyph unicode="&#xad;" horiz-adv-x="1075" d="M172 717h731q64 0 64 -64v-49q0 -65 -64 -65h-731q-63 0 -63 65v49q0 64 63 64z" />
<glyph unicode="&#xae;" horiz-adv-x="1351" d="M672 205q-267 0 -428.5 158.5t-161.5 420.5q0 264 161.5 425t428.5 161q269 0 432.5 -161t163.5 -425q0 -262 -163.5 -420.5t-432.5 -158.5zM672 1255q-212 0 -337.5 -128.5t-125.5 -342.5q0 -212 125.5 -338.5t337.5 -126.5q214 0 341.5 126.5t127.5 338.5 q0 214 -127.5 342.5t-341.5 128.5zM813 745l131 -251q8 -16 9.5 -25.5t-5 -14.5t-20.5 -5h-41q-32 0 -49 9.5t-29 33.5l-119 231h-108v-229q0 -25 -8 -35t-33 -10h-49q-25 0 -33 10t-8 35v608q0 63 63 63h156q86 0 145 -19t97 -71t38 -137q0 -145 -137 -193zM821 940 q0 59 -39 83t-116 24h-84v-216h88q151 0 151 109z" />
<glyph unicode="&#xaf;" horiz-adv-x="1589" d="M467 1366h590q63 0 63 -63v-52q0 -61 -63 -61h-590q-64 0 -64 61v52q0 63 64 63z" />
<glyph unicode="&#xb0;" horiz-adv-x="745" d="M219 1055q0 -63 44.5 -107.5t107.5 -44.5t108 44.5t45 107.5t-45 108t-108 45t-107.5 -45t-44.5 -108zM61 1055q0 129 91 220t219 91q129 0 220 -91t91 -220t-91 -219.5t-220 -90.5q-128 0 -219 90.5t-91 219.5z" />
<glyph unicode="&#xb1;" horiz-adv-x="1085" d="M641 1034h270q66 0 66 -63v-49q0 -64 -66 -64h-270v-287q0 -65 -66 -65h-65q-31 0 -47.5 17.5t-16.5 47.5v287h-278q-64 0 -64 64v49q0 63 64 63h278v291q0 29 16.5 46.5t47.5 17.5h65q33 0 49.5 -17.5t16.5 -46.5v-291zM172 401h746q63 0 63 -65v-49q0 -29 -16 -46.5 t-47 -17.5h-746q-31 0 -47 17.5t-16 46.5v49q0 65 63 65z" />
<glyph unicode="&#xb2;" horiz-adv-x="759" d="M367 1499q144 0 218 -66t74 -167q0 -54 -32.5 -101t-78.5 -79.5t-92.5 -60t-79 -54t-32.5 -49.5h270q28 0 41 -11t13 -39v-49q0 -27 -13 -37t-41 -10h-483q-33 0 -33 33v35q0 56 39 105t94.5 84t111.5 67t95 68.5t39 74.5q0 43 -31 73t-92 30q-60 0 -90 -44t-35 -88 q-2 -18 -28 -14l-74 14q-25 4 -34 15.5t-7 32.5q3 31 11 60.5t28.5 62.5t50 57.5t79 40.5t112.5 16z" />
<glyph unicode="&#xb3;" horiz-adv-x="700" d="M272 1104v59q0 21 17 21h26q59 2 91 22.5t32 73.5q0 40 -28.5 62t-71.5 22q-108 0 -123 -80q-3 -20 -27 -14l-84 16q-13 3 -18.5 7.5t-6.5 8.5t-1 15q5 81 71 131.5t189 50.5q127 0 198.5 -52t71.5 -136q0 -133 -121 -174q65 -18 102.5 -66t37.5 -119q0 -87 -75.5 -137.5 t-213.5 -50.5q-129 0 -189 46.5t-69 115.5q-3 20 3.5 29t25.5 12l75 12q26 3 31 -14q4 -11 11.5 -22t21.5 -23t39.5 -19.5t58.5 -7.5q51 0 81 26.5t30 73.5q0 90 -142 90h-24q-19 0 -19 21z" />
<glyph unicode="&#xb4;" horiz-adv-x="714" d="M545 1507l-195 -282q-21 -35 -63 -35h-94q-17 0 -23.5 11t0.5 24l123 282q13 39 59 39h170q22 0 28.5 -12t-5.5 -27z" />
<glyph unicode="&#xb5;" horiz-adv-x="1046" d="M946 950v-884q0 -66 -65 -66h-60q-65 0 -65 66v84h-8q-4 -14 -18.5 -34.5t-42 -47.5t-77.5 -47t-112 -23q-108 -6 -176 27v-365q0 -31 -17 -48.5t-49 -17.5h-84q-30 0 -46.5 17.5t-16.5 48.5v1290q0 31 16.5 48.5t46.5 17.5h84q32 0 49 -17.5t17 -48.5v-567 q0 -213 198 -213q56 0 99.5 20.5t67 53t35 67t11.5 68.5v571q0 31 17.5 48.5t48.5 17.5h82q65 0 65 -66z" />
<glyph unicode="&#xb6;" horiz-adv-x="1419" d="M754 479h-105q-179 -1 -312 52.5t-210.5 168.5t-77.5 283q0 126 44 222.5t124.5 157t189 90.5t242.5 30h240q63 0 63 -64v-1515q0 -66 -63 -66h-70q-31 0 -48 18t-17 48v575zM1233 -162h-70q-65 0 -65 66v1515q0 64 65 64h70q63 0 63 -64v-1515q0 -66 -63 -66z" />
<glyph unicode="&#xb7;" horiz-adv-x="454" d="M74 872q0 65 44 110.5t107 45.5q66 0 111 -45.5t45 -110.5q0 -64 -45 -107.5t-111 -43.5q-63 0 -107 43.5t-44 107.5z" />
<glyph unicode="&#xb8;" horiz-adv-x="1265" d="M535 -455q-116 0 -174.5 50.5t-67.5 119.5q-2 15 3 22.5t21 10.5l78 12q24 3 29 -16q16 -70 117 -70q45 0 73.5 19.5t28.5 52.5q0 36 -24 59t-76 23q-44 0 -62 -6q-9 -2 -13 1t-1 13l35 139q6 29 37 29h71q15 0 21.5 -7.5t1.5 -19.5l-19 -55q77 -14 123.5 -61t46.5 -123 q0 -92 -74 -142.5t-175 -50.5z" />
<glyph unicode="&#xb9;" horiz-adv-x="557" d="M266 1274q-22 -22 -73 -47.5t-111 -28.5q-37 0 -37 29v102q0 19 5.5 25t19.5 8q92 9 174 74q2 2 9 8t9 8t8 7t8.5 6.5t8 5t9 4.5t9 3t10.5 3t11.5 1.5t13.5 0.5h61q27 0 37.5 -12t10.5 -39v-621q0 -47 -52 -47h-80q-51 0 -51 47v463z" />
<glyph unicode="&#xba;" horiz-adv-x="741" d="M369 946q69 0 101 50.5t32 156.5q0 203 -133 203q-129 0 -129 -203q0 -106 31 -156.5t98 -50.5zM369 801q-154 0 -225.5 86.5t-71.5 265.5q0 173 72 260.5t225 87.5q156 0 228.5 -87t72.5 -261q0 -179 -72 -265.5t-229 -86.5z" />
<glyph unicode="&#xbb;" horiz-adv-x="1212" d="M455 633l-308 196q-51 38 -51 99v61q0 25 17.5 34.5t36.5 -3.5l415 -268q53 -35 53 -101v-41q0 -61 -53 -98l-415 -268q-17 -13 -35.5 -5t-18.5 33v64q0 60 51 98zM997 631l-305 198q-51 33 -51 99v61q0 25 17 33.5t36 -4.5l412 -266q53 -35 53 -101v-41q0 -63 -53 -98 l-412 -270q-19 -12 -36 -4t-17 34v62q0 62 51 98z" />
<glyph unicode="&#xbc;" horiz-adv-x="1402" d="M213 55l852 1372q35 56 98 56h84q26 0 35.5 -17t-4.5 -39l-854 -1372q-37 -55 -100 -55h-82q-27 0 -34.5 17.5t5.5 37.5zM276 1274q-22 -22 -72 -47.5t-110 -28.5q-20 0 -29.5 6t-9.5 23v102q0 19 6 25t21 8q88 6 172 74q2 2 9 8t9 8t8 7t8.5 6.5t8 5t9 4.5t9 3t10.5 3 t11.5 1.5t13.5 0.5h62q28 0 37.5 -11.5t9.5 -39.5v-621q0 -25 -11.5 -36t-37.5 -11h-82q-52 0 -52 47v463zM1049 158h-310q-45 0 -45 39v36q0 48 35 93l248 331q39 52 100 52h74q30 0 46.5 -18t16.5 -48v-356h39q18 0 25.5 -7.5t7.5 -29.5v-53q0 -24 -7.5 -31.5t-25.5 -7.5 h-39v-103q0 -31 -12.5 -43t-44.5 -12h-51q-30 0 -43.5 12.5t-13.5 42.5v103zM1049 543l-189 -256h189v256z" />
<glyph unicode="&#xbd;" horiz-adv-x="1462" d="M160 55l852 1372q35 56 98 56h84q26 0 35.5 -17t-4.5 -39l-856 -1372q-34 -55 -99 -55h-82q-27 0 -34 17.5t6 37.5zM281 1274q-14 -13 -36 -27.5t-64.5 -30.5t-84.5 -18q-39 -3 -39 29v102q0 19 6 25t21 8q90 7 174 74q3 2 9.5 8t9 8t8 7t8 6.5t8 5t9 4.5t8.5 3t10 3 t11 1.5t13 0.5h64q27 0 36 -11.5t9 -39.5v-621q0 -25 -11.5 -36t-37.5 -11h-80q-51 0 -51 47v463zM1073 143h268q30 0 43 -9.5t13 -37.5v-49q0 -27 -13.5 -37t-42.5 -10h-481q-33 0 -33 33v35q0 56 39 105t94.5 84t110.5 67t94 68.5t39 74.5q0 43 -29.5 71.5t-91.5 28.5 q-32 0 -57.5 -14.5t-39 -36t-20.5 -42t-8 -38.5q0 -17 -28 -12l-76 14q-24 4 -32.5 15t-6.5 32q2 30 10 59.5t28.5 63t50.5 58t79.5 41t112.5 16.5q144 0 217 -66.5t73 -167.5q0 -39 -17.5 -75t-45 -63t-60.5 -51.5t-66.5 -44.5t-61 -38.5t-45 -37t-17.5 -36.5z" />
<glyph unicode="&#xbe;" horiz-adv-x="1394" d="M201 55l852 1372q35 56 98 56h84q27 0 36.5 -17t-3.5 -39l-856 -1372q-34 -55 -99 -55h-84q-27 0 -34 17.5t6 37.5zM272 1104v59q0 21 17 21h26q60 2 91.5 22.5t31.5 73.5q0 40 -28.5 62t-71.5 22q-108 0 -123 -80q-3 -20 -27 -14l-84 16q-18 4 -22 10t-4 21 q6 81 71.5 131.5t188.5 50.5q127 0 198.5 -52t71.5 -136q0 -133 -121 -174q65 -18 102.5 -66t37.5 -119q0 -87 -75.5 -137.5t-213.5 -50.5q-129 0 -189 46.5t-69 115.5q-3 36 31 41l75 12q26 3 31 -14q8 -28 38 -50t91 -22q51 0 81 26.5t30 73.5q0 90 -142 90h-24 q-19 0 -19 21zM1051 158h-312q-43 0 -43 39v36q0 47 33 93l248 331q39 52 102 52h74q30 0 47 -18t17 -48v-356h38q18 0 25.5 -7.5t7.5 -29.5v-53q0 -24 -7.5 -31.5t-25.5 -7.5h-38v-103q0 -31 -13 -43t-45 -12h-51q-30 0 -43.5 12.5t-13.5 42.5v103zM1051 543l-189 -256h189 v256z" />
<glyph unicode="&#xbf;" horiz-adv-x="1054" d="M489 573v29q0 15 5.5 21t21.5 6h166q25 0 25 -27v-27q0 -64 -24 -121.5t-62 -101.5t-83.5 -85.5t-91.5 -81.5t-84 -81t-62 -92.5t-24 -107.5q0 -59 16 -105.5t40.5 -75.5t58 -47.5t66 -26t65.5 -7.5q121 0 192 62t81 187q3 51 61 39l102 -20q30 -6 42.5 -23t9.5 -51 q-13 -188 -135.5 -295.5t-362.5 -107.5q-75 0 -142.5 16t-127.5 51.5t-103 87.5t-68.5 128.5t-25.5 170.5q0 73 24.5 138.5t63.5 115t86.5 95t95 85.5t86.5 78.5t63.5 83t24.5 90.5zM590 1028q60 0 101.5 -42t41.5 -103t-41.5 -103.5t-101.5 -42.5t-102 42.5t-42 103.5 t42 103t102 42z" />
<glyph unicode="&#xc0;" horiz-adv-x="1144" d="M707 1421l389 -1358q8 -24 -4 -43.5t-41 -19.5h-117q-65 0 -78 61l-61 232h-445l-61 -232q-16 -61 -80 -61h-115q-29 0 -41 19t-4 44l389 1358q18 62 82 62h105q64 0 82 -62zM393 471h357l-177 690zM473 1620l-194 283q-10 15 -4 25.5t28 10.5h170q46 0 59 -38l121 -283 q7 -14 1.5 -24.5t-21.5 -10.5h-96q-41 0 -64 37z" />
<glyph unicode="&#xc1;" horiz-adv-x="1144" d="M707 1421l389 -1358q8 -24 -4 -43.5t-41 -19.5h-117q-65 0 -78 61l-61 232h-445l-61 -232q-16 -61 -80 -61h-115q-29 0 -41 19t-4 44l389 1358q18 62 82 62h105q64 0 82 -62zM393 471h357l-177 690zM862 1901l-194 -283q-21 -35 -64 -35h-94q-17 0 -23.5 10.5t0.5 24.5 l123 283q13 38 60 38h170q22 0 28 -11.5t-6 -26.5z" />
<glyph unicode="&#xc2;" horiz-adv-x="1144" d="M707 1421l389 -1358q8 -24 -4 -43.5t-41 -19.5h-117q-65 0 -78 61l-61 232h-445l-61 -232q-16 -61 -80 -61h-115q-29 0 -41 19t-4 44l389 1358q18 62 82 62h105q64 0 82 -62zM393 471h357l-177 690zM715 1896l137 -268q8 -15 -1.5 -30t-29.5 -15h-53q-49 0 -78 43 l-119 178l-120 -178q-29 -43 -80 -43h-52q-20 0 -28.5 14t0.5 31l137 268q22 43 70 43h145q50 0 72 -43z" />
<glyph unicode="&#xc3;" horiz-adv-x="1144" d="M707 1421l389 -1358q8 -24 -4 -43.5t-41 -19.5h-117q-65 0 -78 61l-61 232h-445l-61 -232q-16 -61 -80 -61h-115q-29 0 -41 19t-4 44l389 1358q18 62 82 62h105q64 0 82 -62zM393 471h357l-177 690zM862 1810h68q21 0 29.5 -5.5t5.5 -20.5q-6 -34 -20.5 -65.5 t-41.5 -65.5t-75.5 -55t-112.5 -21q-47 0 -92.5 17.5t-75 39t-68 39t-73.5 17.5t-58.5 -20t-30.5 -46q-5 -20 -32 -20h-68q-19 0 -26.5 6.5t-6.5 23.5q4 34 17 65.5t37.5 62t68 49t99.5 18.5q43 0 88 -17.5t76.5 -39t70.5 -39t72 -17.5q46 0 74.5 21.5t39.5 50.5 q6 14 12.5 18t22.5 4z" />
<glyph unicode="&#xc4;" horiz-adv-x="1144" d="M707 1421l389 -1358q8 -24 -4 -43.5t-41 -19.5h-117q-65 0 -78 61l-61 232h-445l-61 -232q-16 -61 -80 -61h-115q-29 0 -41 19t-4 44l389 1358q18 62 82 62h105q64 0 82 -62zM393 471h357l-177 690zM229 1702q0 53 36.5 90t90.5 37q52 0 89.5 -37.5t37.5 -89.5t-37 -88.5 t-90 -36.5q-54 0 -90.5 36t-36.5 89zM666 1702q0 52 37 89.5t90 37.5q54 0 90.5 -37t36.5 -90t-36.5 -89t-90.5 -36q-53 0 -90 36.5t-37 88.5z" />
<glyph unicode="&#xc5;" horiz-adv-x="1144" d="M707 1421l389 -1358q8 -24 -4 -43.5t-41 -19.5h-117q-65 0 -78 61l-61 232h-445l-61 -232q-16 -61 -80 -61h-115q-29 0 -41 19t-4 44l389 1358q18 62 82 62h105q64 0 82 -62zM393 471h357l-177 690zM377 1774q0 81 58 139.5t138 58.5q82 0 140.5 -58t58.5 -140 q0 -80 -59 -138.5t-140 -58.5q-79 0 -137.5 58.5t-58.5 138.5zM496 1774q0 -31 22.5 -54.5t54.5 -23.5q33 0 56.5 23.5t23.5 54.5q0 34 -23 57.5t-57 23.5q-32 0 -54.5 -23.5t-22.5 -57.5z" />
<glyph unicode="&#xc6;" horiz-adv-x="1853" d="M866 461v782l-385 -782h385zM866 63v242h-463l-118 -244q-31 -61 -97 -61h-125q-30 0 -38 17.5t6 43.5l692 1362q32 60 94 60h905q32 0 49 -17t17 -47v-76q0 -30 -17 -47.5t-49 -17.5h-620v-426h500q63 0 63 -64v-75q0 -64 -63 -64h-500v-444h620q32 0 49 -18t17 -48v-76 q0 -30 -17 -46.5t-49 -16.5h-790q-30 0 -48 18t-18 45z" />
<glyph unicode="&#xc7;" horiz-adv-x="1183" d="M584 -444q-116 0 -174.5 50.5t-67.5 119.5q-2 14 3.5 21.5t21.5 10.5l77 13q24 3 29 -17q16 -69 117 -69q45 0 73.5 19t28.5 52q0 36 -24 59t-76 23q-44 0 -62 -6q-9 -2 -13 1t-1 13l35 140q-113 8 -195 45.5t-134.5 97.5t-84 153.5t-43.5 199.5t-12 249q0 96 6.5 177 t22.5 161t42.5 143.5t67.5 118t96 91t130 57t167 20.5q113 0 200.5 -26t141.5 -67t89.5 -101.5t50.5 -121.5t20 -134q3 -38 -10.5 -54t-46.5 -22l-98 -19q-65 -11 -68 37q-4 63 -20 114t-47.5 94t-85 67t-126.5 24q-66 0 -116 -20.5t-82 -61.5t-52.5 -88.5t-30 -117 t-13 -129.5t-3.5 -142q0 -69 1.5 -118.5t6.5 -104.5t14.5 -93t24 -76.5t37 -63t52.5 -44.5t70.5 -29t90.5 -9q137 0 201.5 73.5t77.5 204.5q3 29 21 44t49 9l94 -16q33 -6 46.5 -24t10.5 -54q-4 -73 -19.5 -133t-47.5 -116t-80 -95.5t-121 -66t-166 -33.5l-16 -54 q77 -14 123.5 -61t46.5 -123q0 -92 -74.5 -142t-175.5 -50z" />
<glyph unicode="&#xc8;" horiz-adv-x="1116" d="M365 649v-444h622q31 0 47.5 -18t16.5 -48v-76q0 -63 -64 -63h-792q-30 0 -47 18t-17 45v1356q0 27 17 45.5t47 18.5h792q64 0 64 -64v-76q0 -30 -16.5 -47.5t-47.5 -17.5h-622v-426h499q32 0 49 -17t17 -47v-75q0 -30 -17 -47t-49 -17h-499zM502 1620l-195 283 q-10 15 -3.5 25.5t28.5 10.5h170q46 0 59 -38l121 -283q7 -14 1.5 -24.5t-21.5 -10.5h-97q-40 0 -63 37z" />
<glyph unicode="&#xc9;" horiz-adv-x="1116" d="M881 1901l-195 -283q-21 -35 -63 -35h-95q-17 0 -23 10.5t1 24.5l123 283q13 38 59 38h170q22 0 28.5 -11.5t-5.5 -26.5zM365 649v-444h622q31 0 47.5 -18t16.5 -48v-76q0 -63 -64 -63h-792q-30 0 -47 18t-17 45v1356q0 27 17 45.5t47 18.5h792q64 0 64 -64v-76 q0 -30 -16.5 -47.5t-47.5 -17.5h-622v-426h499q32 0 49 -17t17 -47v-75q0 -30 -17 -47t-49 -17h-499z" />
<glyph unicode="&#xca;" horiz-adv-x="1116" d="M735 1896l137 -268q8 -16 -1 -30.5t-29 -14.5h-54q-48 0 -77 43l-119 178l-121 -178q-29 -43 -80 -43h-51q-20 0 -29 14t0 31l138 268q22 43 69 43h146q49 0 71 -43zM365 649v-444h622q31 0 47.5 -18t16.5 -48v-76q0 -63 -64 -63h-792q-30 0 -47 18t-17 45v1356 q0 27 17 45.5t47 18.5h792q64 0 64 -64v-76q0 -30 -16.5 -47.5t-47.5 -17.5h-622v-426h499q32 0 49 -17t17 -47v-75q0 -30 -17 -47t-49 -17h-499z" />
<glyph unicode="&#xcb;" horiz-adv-x="1116" d="M248 1702q0 53 36.5 90t90.5 37q53 0 90 -37.5t37 -89.5t-37 -88.5t-90 -36.5q-54 0 -90.5 36t-36.5 89zM684 1702q0 52 37 89.5t90 37.5q54 0 90.5 -37t36.5 -90t-36.5 -89t-90.5 -36q-53 0 -90 36.5t-37 88.5zM365 649v-444h622q31 0 47.5 -18t16.5 -48v-76 q0 -63 -64 -63h-792q-30 0 -47 18t-17 45v1356q0 27 17 45.5t47 18.5h792q64 0 64 -64v-76q0 -30 -16.5 -47.5t-47.5 -17.5h-622v-426h499q32 0 49 -17t17 -47v-75q0 -30 -17 -47t-49 -17h-499z" />
<glyph unicode="&#xcc;" horiz-adv-x="493" d="M365 1417v-1351q0 -31 -17 -48.5t-49 -17.5h-104q-32 0 -49 17.5t-17 48.5v1351q0 31 17 48.5t49 17.5h104q32 0 49 -17.5t17 -48.5zM139 1620l-194 283q-10 15 -4 25.5t28 10.5h170q47 0 60 -38l120 -283q7 -14 1.5 -24.5t-21.5 -10.5h-96q-41 0 -64 37z" />
<glyph unicode="&#xcd;" horiz-adv-x="493" d="M365 1417v-1351q0 -31 -17 -48.5t-49 -17.5h-104q-32 0 -49 17.5t-17 48.5v1351q0 31 17 48.5t49 17.5h104q32 0 49 -17.5t17 -48.5zM549 1901l-195 -283q-21 -35 -63 -35h-94q-17 0 -23.5 10.5t0.5 24.5l123 283q13 38 59 38h170q22 0 28.5 -11.5t-5.5 -26.5z" />
<glyph unicode="&#xce;" horiz-adv-x="493" d="M365 1417v-1351q0 -31 -17 -48.5t-49 -17.5h-104q-32 0 -49 17.5t-17 48.5v1351q0 31 17 48.5t49 17.5h104q32 0 49 -17.5t17 -48.5zM389 1896l137 -268q8 -16 -1 -30.5t-29 -14.5h-54q-48 0 -77 43l-119 178l-121 -178q-29 -43 -80 -43h-51q-20 0 -29 14t0 31l137 268 q22 43 70 43h145q50 0 72 -43z" />
<glyph unicode="&#xcf;" horiz-adv-x="493" d="M365 1417v-1351q0 -31 -17 -48.5t-49 -17.5h-104q-32 0 -49 17.5t-17 48.5v1351q0 31 17 48.5t49 17.5h104q32 0 49 -17.5t17 -48.5zM-98 1702q0 53 36.5 90t90.5 37q53 0 90 -37.5t37 -89.5t-37 -88.5t-90 -36.5q-54 0 -90.5 36t-36.5 89zM338 1702q0 52 37 89.5 t90 37.5q54 0 90.5 -37t36.5 -90t-36.5 -89t-90.5 -36q-53 0 -90 36.5t-37 88.5z" />
<glyph unicode="&#xd0;" horiz-adv-x="1323" d="M567 0h-338q-30 0 -46.5 18t-16.5 45v596h-76q-31 0 -47 17.5t-16 46.5v65q0 29 16 46.5t47 17.5h76v567q0 27 16.5 45.5t46.5 18.5h338q144 0 271 -56t218.5 -154t144 -238.5t52.5 -303.5t-52.5 -300.5t-144.5 -231.5t-218 -146.5t-271 -52.5zM1016 731 q0 242 -130 393.5t-339 151.5h-148v-424h148q31 0 47 -17.5t16 -46.5v-65q0 -29 -16 -46.5t-47 -17.5h-148v-454h148q211 0 340 143t129 383z" />
<glyph unicode="&#xd1;" horiz-adv-x="1333" d="M1202 1417v-1351q0 -66 -63 -66h-99q-58 0 -96 63l-579 938v-935q0 -31 -17 -48.5t-49 -17.5h-104q-31 0 -47.5 17.5t-16.5 48.5v1353q0 29 16.5 46.5t47.5 17.5h57q35 0 54.5 -12.5t41.5 -43.5l621 -987v977q0 66 65 66h105q63 0 63 -66zM967 1810h67q21 0 29.5 -5.5 t5.5 -20.5q-6 -34 -20.5 -65.5t-41.5 -65.5t-75.5 -55t-112.5 -21q-47 0 -92.5 17.5t-75 39t-68 39t-73.5 17.5t-58 -20t-30 -46q-5 -20 -33 -20h-67q-19 0 -26.5 6.5t-6.5 23.5q4 34 17 65.5t37.5 62t67.5 49t99 18.5q43 0 88 -17.5t76.5 -39t70.5 -39t72 -17.5q46 0 75 22 t40 50q6 14 12.5 18t22.5 4z" />
<glyph unicode="&#xd2;" horiz-adv-x="1275" d="M637 -16q-289 0 -423 179t-134 572q0 394 135 579t422 185q288 0 422.5 -184.5t134.5 -579.5q0 -393 -133.5 -572t-423.5 -179zM637 193q169 0 245 128t76 414q0 290 -76.5 422.5t-244.5 132.5q-167 0 -243.5 -133t-76.5 -422q0 -285 76 -413.5t244 -128.5zM541 1620 l-195 283q-10 15 -3.5 25.5t28.5 10.5h170q46 0 59 -38l121 -283q7 -14 1.5 -24.5t-22.5 -10.5h-96q-40 0 -63 37z" />
<glyph unicode="&#xd3;" horiz-adv-x="1275" d="M928 1901l-195 -283q-21 -35 -63 -35h-95q-17 0 -23 10.5t1 24.5l123 283q13 38 59 38h170q22 0 28.5 -11.5t-5.5 -26.5zM637 -16q-289 0 -423 179t-134 572q0 394 135 579t422 185q288 0 422.5 -184.5t134.5 -579.5q0 -393 -133.5 -572t-423.5 -179zM637 193 q169 0 245 128t76 414q0 290 -76.5 422.5t-244.5 132.5q-167 0 -243.5 -133t-76.5 -422q0 -285 76 -413.5t244 -128.5z" />
<glyph unicode="&#xd4;" horiz-adv-x="1275" d="M780 1896l138 -268q8 -15 -1.5 -30t-29.5 -15h-53q-49 0 -78 43l-119 178l-121 -178q-29 -43 -80 -43h-51q-20 0 -29 14t0 31l138 268q22 43 69 43h146q49 0 71 -43zM637 -16q-289 0 -423 179t-134 572q0 394 135 579t422 185q288 0 422.5 -184.5t134.5 -579.5 q0 -393 -133.5 -572t-423.5 -179zM637 193q169 0 245 128t76 414q0 290 -76.5 422.5t-244.5 132.5q-167 0 -243.5 -133t-76.5 -422q0 -285 76 -413.5t244 -128.5z" />
<glyph unicode="&#xd5;" horiz-adv-x="1275" d="M637 -16q-289 0 -423 179t-134 572q0 394 135 579t422 185q288 0 422.5 -184.5t134.5 -579.5q0 -393 -133.5 -572t-423.5 -179zM637 193q169 0 245 128t76 414q0 290 -76.5 422.5t-244.5 132.5q-167 0 -243.5 -133t-76.5 -422q0 -285 76 -413.5t244 -128.5zM926 1810h67 q21 0 29.5 -5.5t5.5 -20.5q-6 -34 -20.5 -65.5t-41.5 -65.5t-75.5 -55t-112.5 -21q-47 0 -92.5 17.5t-75 39t-68 39t-73.5 17.5t-58 -20t-30 -46q-5 -20 -33 -20h-67q-19 0 -26.5 6.5t-6.5 23.5q4 34 17 65.5t37.5 62t67.5 49t99 18.5q43 0 88 -17.5t76.5 -39t70.5 -39 t72 -17.5q46 0 75 22t40 50q6 14 12.5 18t22.5 4z" />
<glyph unicode="&#xd6;" horiz-adv-x="1275" d="M293 1702q0 53 36.5 90t90.5 37q52 0 89.5 -37.5t37.5 -89.5t-37 -88.5t-90 -36.5q-54 0 -90.5 36t-36.5 89zM729 1702q0 52 37.5 89.5t89.5 37.5q54 0 90.5 -37t36.5 -90t-36.5 -89t-90.5 -36q-53 0 -90 36.5t-37 88.5zM637 -16q-289 0 -423 179t-134 572q0 394 135 579 t422 185q288 0 422.5 -184.5t134.5 -579.5q0 -393 -133.5 -572t-423.5 -179zM637 193q169 0 245 128t76 414q0 290 -76.5 422.5t-244.5 132.5q-167 0 -243.5 -133t-76.5 -422q0 -285 76 -413.5t244 -128.5z" />
<glyph unicode="&#xd7;" horiz-adv-x="1228" d="M614 922l351 348q18 18 42.5 18.5t45.5 -20.5l51 -58q20 -24 19.5 -48t-19.5 -42l-346 -342l346 -340q19 -19 19.5 -43.5t-19.5 -48.5l-51 -57q-21 -21 -45.5 -20.5t-44.5 18.5l-349 346l-350 -346q-20 -18 -44.5 -18.5t-45.5 20.5l-51 57q-20 24 -18.5 48.5t20.5 43.5 l342 340l-342 342q-19 18 -20.5 42t18.5 48l51 58q21 21 45.5 20.5t44.5 -18.5z" />
<glyph unicode="&#xd8;" horiz-adv-x="1275" d="M637 -16q-206 0 -330 90l-22 -33q-15 -22 -31.5 -31.5t-48.5 -9.5h-84q-27 0 -31.5 16t10.5 39l88 144q-108 177 -108 536q0 394 135 579t422 185q187 0 311 -80l23 37q18 30 37 42.5t49 12.5h88q25 0 30.5 -16t-8.5 -39l-98 -156q125 -186 125 -565q0 -393 -133.5 -572 t-423.5 -179zM637 193q169 0 245 128t76 414q0 203 -45 330l-489 -789q74 -83 213 -83zM317 735q0 -183 33 -289l481 775q-75 69 -194 69q-167 0 -243.5 -133t-76.5 -422z" />
<glyph unicode="&#xd9;" horiz-adv-x="1284" d="M354 1419v-880q0 -158 74 -252t213 -94t214 93.5t75 252.5v880q0 28 16 46t47 18h107q31 0 47 -17.5t16 -46.5v-903q0 -123 -29.5 -219t-91 -167t-163 -108.5t-238.5 -37.5q-520 0 -520 532v903q0 29 16 46.5t47 17.5h107q31 0 47 -17.5t16 -46.5zM532 1620l-194 283 q-10 15 -4 25.5t28 10.5h170q47 0 60 -38l121 -283q7 -14 1.5 -24.5t-22.5 -10.5h-96q-41 0 -64 37z" />
<glyph unicode="&#xda;" horiz-adv-x="1284" d="M948 1901l-194 -283q-21 -35 -64 -35h-94q-17 0 -23.5 10.5t0.5 24.5l123 283q13 38 60 38h170q22 0 28 -11.5t-6 -26.5zM354 1419v-880q0 -158 74 -252t213 -94t214 93.5t75 252.5v880q0 28 16 46t47 18h107q31 0 47 -17.5t16 -46.5v-903q0 -123 -29.5 -219t-91 -167 t-163 -108.5t-238.5 -37.5q-520 0 -520 532v903q0 29 16 46.5t47 17.5h107q31 0 47 -17.5t16 -46.5z" />
<glyph unicode="&#xdb;" horiz-adv-x="1284" d="M784 1896l138 -268q8 -15 -1.5 -30t-29.5 -15h-53q-49 0 -78 43l-119 178l-121 -178q-29 -43 -80 -43h-51q-20 0 -29 14t0 31l138 268q22 43 69 43h146q49 0 71 -43zM354 1419v-880q0 -158 74 -252t213 -94t214 93.5t75 252.5v880q0 28 16 46t47 18h107q31 0 47 -17.5 t16 -46.5v-903q0 -123 -29.5 -219t-91 -167t-163 -108.5t-238.5 -37.5q-520 0 -520 532v903q0 29 16 46.5t47 17.5h107q31 0 47 -17.5t16 -46.5z" />
<glyph unicode="&#xdc;" horiz-adv-x="1284" d="M297 1702q0 53 36.5 90t90.5 37q52 0 89.5 -37.5t37.5 -89.5t-37 -88.5t-90 -36.5q-54 0 -90.5 36t-36.5 89zM733 1702q0 52 37.5 89.5t89.5 37.5q54 0 90.5 -37t36.5 -90t-36.5 -89t-90.5 -36q-53 0 -90 36.5t-37 88.5zM354 1419v-880q0 -158 74 -252t213 -94t214 93.5 t75 252.5v880q0 28 16 46t47 18h107q31 0 47 -17.5t16 -46.5v-903q0 -123 -29.5 -219t-91 -167t-163 -108.5t-238.5 -37.5q-520 0 -520 532v903q0 29 16 46.5t47 17.5h107q31 0 47 -17.5t16 -46.5z" />
<glyph unicode="&#xdd;" horiz-adv-x="1175" d="M705 573v-510q0 -29 -17.5 -46t-48.5 -17h-104q-31 0 -48.5 17t-17.5 46v508l-408 852q-12 22 -1.5 41t38.5 19h129q61 0 88 -60l281 -604l281 606q27 58 90 58h112q28 0 38 -19t-1 -39zM899 1901l-194 -283q-21 -35 -64 -35h-94q-17 0 -23.5 10.5t0.5 24.5l123 283 q13 38 60 38h170q22 0 28 -11.5t-6 -26.5z" />
<glyph unicode="&#xde;" horiz-adv-x="1230" d="M131 68v1353q0 64 64 64h106q64 0 64 -64v-227h247q564 0 564 -471q0 -229 -155 -347t-413 -118h-243v-190q0 -30 -16.5 -48t-47.5 -18h-106q-31 0 -47.5 18t-16.5 48zM608 987h-243v-522h251q155 0 245.5 63.5t90.5 198.5q0 133 -93 196.5t-251 63.5z" />
<glyph unicode="&#xdf;" horiz-adv-x="1191" d="M348 1032v-969q0 -63 -63 -63h-107q-63 0 -63 63v988q0 207 121 327.5t344 120.5q234 0 362.5 -104.5t128.5 -280.5q0 -129 -63 -213t-174 -121q136 -39 215 -136.5t79 -237.5q0 -203 -122.5 -312.5t-352.5 -109.5l-61 4q-57 8 -57 63v82q0 46 40 43q31 -4 62 -4 q121 0 192.5 68t71.5 182q0 122 -85 181t-241 59h-20q-7 0 -12.5 5t-5.5 13v158q0 6 5 10t11 4h18q121 0 198 54t77 165t-68 169t-178 58q-88 0 -146.5 -39.5t-82 -97t-23.5 -129.5z" />
<glyph unicode="&#xe0;" horiz-adv-x="1024" d="M678 541h6v123q0 85 -52 133.5t-157 48.5q-52 0 -90 -10.5t-59 -29t-32 -37t-18 -42.5q-7 -26 -19.5 -33t-37.5 -2l-88 17q-31 6 -39.5 18t-5.5 39q5 38 17.5 71t41 69.5t70 62t109.5 42.5t155 17q114 0 197 -26t130 -73t69 -106t22 -133v-454q0 -36 14 -51t45 -15l23 2 q13 3 17.5 -3.5t4.5 -21.5v-86q0 -33 -14 -47.5t-47 -19.5q-36 -4 -68 -4q-77 0 -116 38.5t-39 84.5v4h-8q0 -2 -7.5 -14t-27.5 -31.5t-49 -37.5t-79.5 -31t-111.5 -13q-172 0 -270 91t-98 226q0 129 101.5 219t274.5 90q78 0 137 -19t79 -37zM690 307q0 69 -55.5 111.5 t-169.5 42.5q-89 0 -143 -45t-54 -109q0 -61 54 -105t143 -44q111 0 168 41.5t57 107.5zM369 1227l-195 282q-10 15 -3.5 26t28.5 11h170q46 0 59 -39l121 -282q7 -13 1.5 -24t-22.5 -11h-96q-40 0 -63 37z" />
<glyph unicode="&#xe1;" horiz-adv-x="1024" d="M678 541h6v123q0 85 -52 133.5t-157 48.5q-52 0 -90 -10.5t-59 -29t-32 -37t-18 -42.5q-7 -26 -19.5 -33t-37.5 -2l-88 17q-31 6 -39.5 18t-5.5 39q5 38 17.5 71t41 69.5t70 62t109.5 42.5t155 17q114 0 197 -26t130 -73t69 -106t22 -133v-454q0 -36 14 -51t45 -15l23 2 q13 3 17.5 -3.5t4.5 -21.5v-86q0 -33 -14 -47.5t-47 -19.5q-36 -4 -68 -4q-77 0 -116 38.5t-39 84.5v4h-8q0 -2 -7.5 -14t-27.5 -31.5t-49 -37.5t-79.5 -31t-111.5 -13q-172 0 -270 91t-98 226q0 129 101.5 219t274.5 90q78 0 137 -19t79 -37zM690 307q0 69 -55.5 111.5 t-169.5 42.5q-89 0 -143 -45t-54 -109q0 -61 54 -105t143 -44q111 0 168 41.5t57 107.5zM782 1507l-194 -282q-21 -35 -64 -35h-94q-17 0 -23 11t1 24l122 282q13 39 60 39h170q21 0 27.5 -12t-5.5 -27z" />
<glyph unicode="&#xe2;" horiz-adv-x="1024" d="M678 541h6v123q0 85 -52 133.5t-157 48.5q-52 0 -90 -10.5t-59 -29t-32 -37t-18 -42.5q-7 -26 -19.5 -33t-37.5 -2l-88 17q-31 6 -39.5 18t-5.5 39q5 38 17.5 71t41 69.5t70 62t109.5 42.5t155 17q114 0 197 -26t130 -73t69 -106t22 -133v-454q0 -36 14 -51t45 -15l23 2 q13 3 17.5 -3.5t4.5 -21.5v-86q0 -33 -14 -47.5t-47 -19.5q-36 -4 -68 -4q-77 0 -116 38.5t-39 84.5v4h-8q0 -2 -7.5 -14t-27.5 -31.5t-49 -37.5t-79.5 -31t-111.5 -13q-172 0 -270 91t-98 226q0 129 101.5 219t274.5 90q78 0 137 -19t79 -37zM690 307q0 69 -55.5 111.5 t-169.5 42.5q-89 0 -143 -45t-54 -109q0 -61 54 -105t143 -44q111 0 168 41.5t57 107.5zM647 1503l137 -268q8 -16 -1 -30.5t-29 -14.5h-54q-48 0 -77 43l-119 178l-121 -178q-29 -43 -80 -43h-51q-20 0 -29 14t0 31l137 268q22 43 70 43h145q50 0 72 -43z" />
<glyph unicode="&#xe3;" horiz-adv-x="1024" d="M678 541h6v123q0 85 -52 133.5t-157 48.5q-52 0 -90 -10.5t-59 -29t-32 -37t-18 -42.5q-7 -26 -19.5 -33t-37.5 -2l-88 17q-31 6 -39.5 18t-5.5 39q5 38 17.5 71t41 69.5t70 62t109.5 42.5t155 17q114 0 197 -26t130 -73t69 -106t22 -133v-454q0 -36 14 -51t45 -15l23 2 q13 3 17.5 -3.5t4.5 -21.5v-86q0 -33 -14 -47.5t-47 -19.5q-36 -4 -68 -4q-77 0 -116 38.5t-39 84.5v4h-8q0 -2 -7.5 -14t-27.5 -31.5t-49 -37.5t-79.5 -31t-111.5 -13q-172 0 -270 91t-98 226q0 129 101.5 219t274.5 90q78 0 137 -19t79 -37zM690 307q0 69 -55.5 111.5 t-169.5 42.5q-89 0 -143 -45t-54 -109q0 -61 54 -105t143 -44q111 0 168 41.5t57 107.5zM768 1417h68q21 0 29 -5.5t5 -20.5q-6 -34 -20 -65.5t-41 -65.5t-75.5 -55t-112.5 -21q-47 0 -92.5 17.5t-75.5 38.5t-68.5 38.5t-73.5 17.5t-58 -19.5t-30 -45.5q-5 -21 -33 -21h-67 q-19 0 -26.5 7t-6.5 24q4 34 17 65.5t37.5 62t67.5 49t99 18.5q43 0 88 -17.5t76.5 -39t70.5 -39t72 -17.5q46 0 75 22t40 50q6 14 12.5 18t22.5 4z" />
<glyph unicode="&#xe4;" horiz-adv-x="1024" d="M678 541h6v123q0 85 -52 133.5t-157 48.5q-52 0 -90 -10.5t-59 -29t-32 -37t-18 -42.5q-7 -26 -19.5 -33t-37.5 -2l-88 17q-31 6 -39.5 18t-5.5 39q5 38 17.5 71t41 69.5t70 62t109.5 42.5t155 17q114 0 197 -26t130 -73t69 -106t22 -133v-454q0 -36 14 -51t45 -15l23 2 q13 3 17.5 -3.5t4.5 -21.5v-86q0 -33 -14 -47.5t-47 -19.5q-36 -4 -68 -4q-77 0 -116 38.5t-39 84.5v4h-8q0 -2 -7.5 -14t-27.5 -31.5t-49 -37.5t-79.5 -31t-111.5 -13q-172 0 -270 91t-98 226q0 129 101.5 219t274.5 90q78 0 137 -19t79 -37zM690 307q0 69 -55.5 111.5 t-169.5 42.5q-89 0 -143 -45t-54 -109q0 -61 54 -105t143 -44q111 0 168 41.5t57 107.5zM133 1309q0 53 36.5 90t90.5 37q52 0 89.5 -37t37.5 -90q0 -52 -37 -88.5t-90 -36.5q-54 0 -90.5 36t-36.5 89zM569 1309q0 53 37.5 90t89.5 37q54 0 90.5 -37t36.5 -90t-36.5 -89 t-90.5 -36q-53 0 -90 36.5t-37 88.5z" />
<glyph unicode="&#xe5;" horiz-adv-x="1024" d="M678 541h6v123q0 85 -52 133.5t-157 48.5q-52 0 -90 -10.5t-59 -29t-32 -37t-18 -42.5q-7 -26 -19.5 -33t-37.5 -2l-88 17q-31 6 -39.5 18t-5.5 39q5 38 17.5 71t41 69.5t70 62t109.5 42.5t155 17q114 0 197 -26t130 -73t69 -106t22 -133v-454q0 -36 14 -51t45 -15l23 2 q13 3 17.5 -3.5t4.5 -21.5v-86q0 -33 -14 -47.5t-47 -19.5q-36 -4 -68 -4q-77 0 -116 38.5t-39 84.5v4h-8q0 -2 -7.5 -14t-27.5 -31.5t-49 -37.5t-79.5 -31t-111.5 -13q-172 0 -270 91t-98 226q0 129 101.5 219t274.5 90q78 0 137 -19t79 -37zM690 307q0 69 -55.5 111.5 t-169.5 42.5q-89 0 -143 -45t-54 -109q0 -61 54 -105t143 -44q111 0 168 41.5t57 107.5zM283 1380q0 82 58 140.5t138 58.5q82 0 140.5 -58.5t58.5 -140.5q0 -80 -58.5 -138t-140.5 -58q-79 0 -137.5 58t-58.5 138zM401 1380q0 -31 23 -54t55 -23q33 0 56.5 23t23.5 54 q0 34 -23 58t-57 24q-32 0 -55 -24t-23 -58z" />
<glyph unicode="&#xe6;" horiz-adv-x="1583" d="M479 1028q228 0 330 -117q108 117 319 117q116 0 196 -34.5t124 -102.5t63 -151t21 -197q2 -33 -11 -49.5t-55 -16.5h-559l6 -53q12 -132 66.5 -193t153.5 -61q83 0 133 29t69 75q10 25 22 34.5t40 6.5l71 -8q38 -4 51 -23.5t5 -47.5q-28 -111 -126 -178.5t-270 -67.5 q-250 0 -354 160h-6q0 -3 -7.5 -17.5t-31 -39.5t-57.5 -47.5t-96.5 -39t-139.5 -16.5q-173 0 -271.5 90.5t-98.5 224.5q0 131 101.5 221t276.5 90q78 0 136.5 -19t77.5 -37l20 -19h6v123q0 85 -52 133.5t-157 48.5q-160 0 -194 -101q-13 -37 -23 -47t-37 -6l-88 17 q-30 6 -39 20.5t-6 42.5q5 47 26 88.5t63 81t120 63t182 23.5zM690 309q0 68 -55.5 110t-169.5 42q-89 0 -143 -45t-54 -109q0 -61 54.5 -105t144.5 -44q110 0 166.5 41.5t56.5 109.5zM1130 856q-111 0 -165 -60t-62 -182h434q-3 118 -49.5 180t-157.5 62z" />
<glyph unicode="&#xe7;" horiz-adv-x="983" d="M481 -455q-116 0 -174 50.5t-67 119.5q-2 15 3 22.5t21 10.5l78 12q24 3 29 -16q16 -70 116 -70q45 0 74 19.5t29 52.5q0 36 -24.5 59t-76.5 23q-43 0 -61 -6q-9 -2 -13 1t-1 13l39 156q-194 14 -286.5 135.5t-92.5 376.5q0 275 106.5 399.5t329.5 124.5q374 0 403 -303 q3 -35 -7.5 -52.5t-49.5 -25.5l-80 -12q-55 -8 -61 39q-10 78 -59 125t-146 47q-113 0 -167 -80t-54 -262q0 -175 55 -254.5t168 -79.5q100 0 146 41.5t57 124.5q3 25 15.5 35t41.5 6l82 -12q38 -6 51 -24t8 -54q-15 -129 -89 -204.5t-240 -88.5l-23 -72q77 -14 123.5 -61 t46.5 -123q0 -92 -74.5 -142.5t-175.5 -50.5z" />
<glyph unicode="&#xe8;" horiz-adv-x="987" d="M776 317l74 -10q38 -4 50.5 -21t4.5 -50q-26 -111 -125.5 -178.5t-269.5 -67.5q-225 0 -330.5 120.5t-105.5 391.5q0 274 107 400t329 126q94 0 164 -23.5t114.5 -64t72 -103.5t39 -133t13.5 -161q0 -36 -12 -51t-53 -15h-559q4 -163 58 -235t165 -72q161 0 205 104 q11 27 23.5 36.5t35.5 6.5zM514 856q-100 0 -153 -57.5t-66 -184.5h424q-5 118 -50.5 180t-154.5 62zM403 1227l-194 282q-10 15 -4 26t28 11h170q47 0 60 -39l121 -282q7 -13 1.5 -24t-22.5 -11h-96q-41 0 -64 37z" />
<glyph unicode="&#xe9;" horiz-adv-x="987" d="M809 1507l-195 -282q-21 -35 -63 -35h-94q-17 0 -23.5 11t0.5 24l123 282q13 39 59 39h170q22 0 28.5 -12t-5.5 -27zM776 317l74 -10q38 -4 50.5 -21t4.5 -50q-26 -111 -125.5 -178.5t-269.5 -67.5q-225 0 -330.5 120.5t-105.5 391.5q0 274 107 400t329 126 q94 0 164 -23.5t114.5 -64t72 -103.5t39 -133t13.5 -161q0 -36 -12 -51t-53 -15h-559q4 -163 58 -235t165 -72q161 0 205 104q11 27 23.5 36.5t35.5 6.5zM514 856q-100 0 -153 -57.5t-66 -184.5h424q-5 118 -50.5 180t-154.5 62z" />
<glyph unicode="&#xea;" horiz-adv-x="987" d="M655 1503l138 -268q8 -15 -1.5 -30t-29.5 -15h-53q-49 0 -78 43l-119 178l-121 -178q-29 -43 -80 -43h-51q-20 0 -29 14t0 31l138 268q22 43 69 43h146q49 0 71 -43zM776 317l74 -10q38 -4 50.5 -21t4.5 -50q-26 -111 -125.5 -178.5t-269.5 -67.5q-225 0 -330.5 120.5 t-105.5 391.5q0 274 107 400t329 126q94 0 164 -23.5t114.5 -64t72 -103.5t39 -133t13.5 -161q0 -36 -12 -51t-53 -15h-559q4 -163 58 -235t165 -72q161 0 205 104q11 27 23.5 36.5t35.5 6.5zM514 856q-100 0 -153 -57.5t-66 -184.5h424q-5 118 -50.5 180t-154.5 62z" />
<glyph unicode="&#xeb;" horiz-adv-x="987" d="M168 1309q0 53 36.5 90t90.5 37q53 0 90 -37t37 -90q0 -52 -37 -88.5t-90 -36.5q-54 0 -90.5 36t-36.5 89zM604 1309q0 53 37 90t90 37q54 0 90.5 -37t36.5 -90t-36.5 -89t-90.5 -36q-53 0 -90 36.5t-37 88.5zM776 317l74 -10q38 -4 50.5 -21t4.5 -50 q-26 -111 -125.5 -178.5t-269.5 -67.5q-225 0 -330.5 120.5t-105.5 391.5q0 274 107 400t329 126q94 0 164 -23.5t114.5 -64t72 -103.5t39 -133t13.5 -161q0 -36 -12 -51t-53 -15h-559q4 -163 58 -235t165 -72q161 0 205 104q11 27 23.5 36.5t35.5 6.5zM514 856 q-100 0 -153 -57.5t-66 -184.5h424q-5 118 -50.5 180t-154.5 62z" />
<glyph unicode="&#xec;" horiz-adv-x="434" d="M319 950v-884q0 -66 -65 -66h-74q-30 0 -46.5 17.5t-16.5 48.5v884q0 66 63 66h74q65 0 65 -66zM102 1227l-194 282q-10 15 -4 26t28 11h170q47 0 60 -39l121 -282q7 -13 1.5 -24t-22.5 -11h-96q-41 0 -64 37z" />
<glyph unicode="&#xed;" horiz-adv-x="434" d="M528 1507l-194 -282q-21 -35 -64 -35h-94q-17 0 -23 11t1 24l122 282q13 39 60 39h170q21 0 27.5 -12t-5.5 -27zM319 950v-884q0 -66 -65 -66h-74q-30 0 -46.5 17.5t-16.5 48.5v884q0 66 63 66h74q65 0 65 -66z" />
<glyph unicode="&#xee;" horiz-adv-x="434" d="M360 1503l138 -268q8 -15 -1.5 -30t-29.5 -15h-53q-49 0 -78 43l-119 178l-121 -178q-29 -43 -80 -43h-51q-20 0 -28.5 14t0.5 31l137 268q22 43 69 43h146q49 0 71 -43zM319 950v-884q0 -66 -65 -66h-74q-30 0 -46.5 17.5t-16.5 48.5v884q0 66 63 66h74q65 0 65 -66z " />
<glyph unicode="&#xef;" horiz-adv-x="434" d="M-127 1309q0 53 36.5 90t90.5 37q52 0 89.5 -37t37.5 -90q0 -52 -37 -88.5t-90 -36.5q-54 0 -90.5 36t-36.5 89zM309 1309q0 53 37.5 90t89.5 37q54 0 90.5 -37t36.5 -90t-36.5 -89t-90.5 -36q-53 0 -90 36.5t-37 88.5zM319 950v-884q0 -66 -65 -66h-74q-30 0 -46.5 17.5 t-16.5 48.5v884q0 66 63 66h74q65 0 65 -66z" />
<glyph unicode="&#xf0;" horiz-adv-x="1185" d="M717 1427l114 80q39 28 62 -10l33 -49q22 -34 -13 -59l-86 -62q130 -132 206.5 -309t76.5 -361q0 -326 -127 -499.5t-403 -173.5q-238 0 -376 131t-138 338q0 205 132.5 327.5t331.5 122.5q120 0 207.5 -47t130.5 -115q-15 128 -78.5 245t-160.5 204l-185 -129 q-39 -26 -59 6l-37 53q-22 38 12 60l142 98q-94 55 -211 72q-26 3 -35.5 18.5t0.5 40.5l53 121q13 29 29.5 35.5t52.5 1.5q161 -17 326 -140zM584 195q253 0 286 352q-20 82 -97.5 142.5t-182.5 60.5q-120 0 -198.5 -76t-78.5 -201q0 -120 74 -199t197 -79z" />
<glyph unicode="&#xf1;" d="M305 868h8q6 18 22 40t48 51.5t89.5 49t129.5 19.5q93 0 162.5 -28t110 -77.5t60 -111t19.5 -135.5v-610q0 -66 -63 -66h-84q-31 0 -47.5 17.5t-16.5 48.5v569q0 211 -202 211q-55 0 -98 -18.5t-67 -49.5t-36 -65t-12 -70v-577q0 -31 -16.5 -48.5t-47.5 -17.5h-84 q-30 0 -46.5 17.5t-16.5 48.5v884q0 66 63 66h62q63 0 63 -66v-82zM821 1425h68q21 0 29.5 -5.5t5.5 -20.5q-6 -34 -20.5 -65.5t-41.5 -65.5t-75.5 -55t-112.5 -21q-47 0 -92.5 17.5t-75 39t-68 39t-73.5 17.5t-58.5 -20t-30.5 -46q-5 -20 -32 -20h-68q-19 0 -26.5 6.5 t-6.5 23.5q4 34 17 65.5t37.5 62t68 49t99.5 18.5q43 0 88 -17.5t76.5 -39t70.5 -39t72 -17.5q46 0 74.5 21.5t39.5 50.5q6 14 12.5 18t22.5 4z" />
<glyph unicode="&#xf2;" horiz-adv-x="1017" d="M510 -10q-225 0 -330.5 122.5t-105.5 391.5q0 270 106 397t330 127t328 -126.5t104 -397.5q0 -269 -103.5 -391.5t-328.5 -122.5zM510 170q114 0 166.5 79.5t52.5 254.5q0 178 -52.5 259t-166.5 81q-116 0 -168.5 -81t-52.5 -259q0 -175 52.5 -254.5t168.5 -79.5z M401 1227l-194 282q-10 15 -4 26t28 11h170q47 0 60 -39l121 -282q7 -13 1.5 -24t-22.5 -11h-96q-41 0 -64 37z" />
<glyph unicode="&#xf3;" horiz-adv-x="1017" d="M811 1507l-195 -282q-21 -35 -63 -35h-94q-17 0 -23.5 11t0.5 24l123 282q13 39 59 39h170q22 0 28.5 -12t-5.5 -27zM510 -10q-225 0 -330.5 122.5t-105.5 391.5q0 270 106 397t330 127t328 -126.5t104 -397.5q0 -269 -103.5 -391.5t-328.5 -122.5zM510 170 q114 0 166.5 79.5t52.5 254.5q0 178 -52.5 259t-166.5 81q-116 0 -168.5 -81t-52.5 -259q0 -175 52.5 -254.5t168.5 -79.5z" />
<glyph unicode="&#xf4;" horiz-adv-x="1017" d="M651 1503l137 -268q8 -16 -1 -30.5t-29 -14.5h-53q-49 0 -78 43l-119 178l-121 -178q-29 -43 -80 -43h-51q-20 0 -29 14t0 31l138 268q22 43 69 43h146q49 0 71 -43zM510 -10q-225 0 -330.5 122.5t-105.5 391.5q0 270 106 397t330 127t328 -126.5t104 -397.5 q0 -269 -103.5 -391.5t-328.5 -122.5zM510 170q114 0 166.5 79.5t52.5 254.5q0 178 -52.5 259t-166.5 81q-116 0 -168.5 -81t-52.5 -259q0 -175 52.5 -254.5t168.5 -79.5z" />
<glyph unicode="&#xf5;" horiz-adv-x="1017" d="M510 -10q-225 0 -330.5 122.5t-105.5 391.5q0 270 106 397t330 127t328 -126.5t104 -397.5q0 -269 -103.5 -391.5t-328.5 -122.5zM510 170q114 0 166.5 79.5t52.5 254.5q0 178 -52.5 259t-166.5 81q-116 0 -168.5 -81t-52.5 -259q0 -175 52.5 -254.5t168.5 -79.5z M797 1417h67q21 0 29.5 -5.5t5.5 -20.5q-6 -34 -20.5 -65.5t-41.5 -65.5t-75.5 -55t-112.5 -21q-47 0 -92.5 17.5t-75 38.5t-68 38.5t-73.5 17.5t-58 -19.5t-30 -45.5q-5 -21 -33 -21h-67q-19 0 -26.5 7t-6.5 24q4 34 17 65.5t37.5 62t67.5 49t99 18.5q43 0 88 -17.5 t76.5 -39t70.5 -39t72 -17.5q46 0 75 22t40 50q6 14 12.5 18t22.5 4z" />
<glyph unicode="&#xf6;" horiz-adv-x="1017" d="M164 1309q0 53 36.5 90t90.5 37q53 0 90 -37t37 -90q0 -52 -37 -88.5t-90 -36.5q-54 0 -90.5 36t-36.5 89zM600 1309q0 53 37 90t90 37q54 0 90.5 -37t36.5 -90t-36.5 -89t-90.5 -36q-53 0 -90 36.5t-37 88.5zM510 -10q-225 0 -330.5 122.5t-105.5 391.5q0 270 106 397 t330 127t328 -126.5t104 -397.5q0 -269 -103.5 -391.5t-328.5 -122.5zM510 170q114 0 166.5 79.5t52.5 254.5q0 178 -52.5 259t-166.5 81q-116 0 -168.5 -81t-52.5 -259q0 -175 52.5 -254.5t168.5 -79.5z" />
<glyph unicode="&#xf7;" horiz-adv-x="1026" d="M141 764h744q63 0 63 -64v-49q0 -65 -63 -65h-744q-65 0 -65 65v49q0 64 65 64zM362 139q0 65 44 110.5t108 45.5t109 -45.5t45 -110.5q0 -63 -45 -107t-109 -44t-108 44t-44 107zM362 1178q0 65 44 110t108 45t109 -45t45 -110q0 -63 -45 -107.5t-109 -44.5t-108 44.5 t-44 107.5z" />
<glyph unicode="&#xf8;" horiz-adv-x="1017" d="M510 -10q-142 0 -231 45l-9 -12q-17 -23 -59 -23h-84q-51 0 -23 45l60 86q-88 125 -88 373q0 270 105 397t329 127q140 0 231 -49l9 14q13 23 63 23h82q49 0 20 -47l-61 -90q90 -128 90 -375q0 -269 -104.5 -391.5t-329.5 -122.5zM291 530q0 -116 24 -190l308 475 q-47 29 -113 29q-111 0 -163.5 -75t-55.5 -239zM510 170q111 0 163.5 74.5t55.5 236.5q0 119 -24 193l-310 -477q47 -27 115 -27z" />
<glyph unicode="&#xf9;" d="M322 950v-567q0 -213 198 -213q56 0 99.5 20.5t67 53t35 67t11.5 68.5v571q0 31 17 48.5t49 17.5h82q65 0 65 -66v-884q0 -66 -65 -66h-60q-31 0 -48 17.5t-17 48.5v84h-8q-3 -11 -12.5 -27t-32.5 -40.5t-53.5 -44t-80.5 -34t-110 -14.5q-92 0 -161.5 28t-109.5 77 t-59.5 110.5t-19.5 134.5v610q0 31 16.5 48.5t46.5 17.5h84q32 0 49 -17.5t17 -48.5zM408 1227l-195 282q-10 15 -3.5 26t28.5 11h170q46 0 59 -39l121 -282q7 -13 1.5 -24t-22.5 -11h-96q-40 0 -63 37z" />
<glyph unicode="&#xfa;" d="M834 1507l-195 -282q-21 -35 -64 -35h-94q-17 0 -23 11t1 24l123 282q13 39 59 39h170q22 0 28.5 -12t-5.5 -27zM322 950v-567q0 -213 198 -213q56 0 99.5 20.5t67 53t35 67t11.5 68.5v571q0 31 17 48.5t49 17.5h82q65 0 65 -66v-884q0 -66 -65 -66h-60q-31 0 -48 17.5 t-17 48.5v84h-8q-3 -11 -12.5 -27t-32.5 -40.5t-53.5 -44t-80.5 -34t-110 -14.5q-92 0 -161.5 28t-109.5 77t-59.5 110.5t-19.5 134.5v610q0 31 16.5 48.5t46.5 17.5h84q32 0 49 -17.5t17 -48.5z" />
<glyph unicode="&#xfb;" d="M670 1503l137 -268q8 -15 -1.5 -30t-29.5 -15h-53q-49 0 -78 43l-119 178l-120 -178q-29 -43 -80 -43h-52q-20 0 -28.5 14t0.5 31l137 268q22 43 70 43h145q50 0 72 -43zM322 950v-567q0 -213 198 -213q56 0 99.5 20.5t67 53t35 67t11.5 68.5v571q0 31 17 48.5t49 17.5 h82q65 0 65 -66v-884q0 -66 -65 -66h-60q-31 0 -48 17.5t-17 48.5v84h-8q-3 -11 -12.5 -27t-32.5 -40.5t-53.5 -44t-80.5 -34t-110 -14.5q-92 0 -161.5 28t-109.5 77t-59.5 110.5t-19.5 134.5v610q0 31 16.5 48.5t46.5 17.5h84q32 0 49 -17.5t17 -48.5z" />
<glyph unicode="&#xfc;" d="M182 1309q0 53 36.5 90t90.5 37q53 0 90 -37t37 -90q0 -52 -37 -88.5t-90 -36.5q-54 0 -90.5 36t-36.5 89zM618 1309q0 53 37 90t90 37q54 0 90.5 -37t36.5 -90t-36.5 -89t-90.5 -36q-53 0 -90 36.5t-37 88.5zM322 950v-567q0 -213 198 -213q56 0 99.5 20.5t67 53t35 67 t11.5 68.5v571q0 31 17 48.5t49 17.5h82q65 0 65 -66v-884q0 -66 -65 -66h-60q-31 0 -48 17.5t-17 48.5v84h-8q-3 -11 -12.5 -27t-32.5 -40.5t-53.5 -44t-80.5 -34t-110 -14.5q-92 0 -161.5 28t-109.5 77t-59.5 110.5t-19.5 134.5v610q0 31 16.5 48.5t46.5 17.5h84 q32 0 49 -17.5t17 -48.5z" />
<glyph unicode="&#xfd;" horiz-adv-x="983" d="M930 950l-301 -880l-78 -242q-45 -133 -117.5 -196.5t-197.5 -63.5l-93 6q-32 3 -46.5 18.5t-14.5 49.5v63q0 35 13 43.5t46 5.5q25 -4 66 -4q71 0 107.5 29.5t58.5 91.5l43 131q-44 12 -60 61l-303 889q-20 64 43 64h111q61 0 82 -66l211 -659l211 659q11 35 30 50.5 t54 15.5h92q66 0 43 -66zM807 1507l-195 -282q-21 -35 -63 -35h-94q-17 0 -23.5 11t0.5 24l123 282q13 39 59 39h170q22 0 28.5 -12t-5.5 -27z" />
<glyph unicode="&#xfe;" horiz-adv-x="1005" d="M328 106v-446q0 -31 -16.5 -48.5t-47.5 -17.5h-84q-30 0 -46.5 17.5t-16.5 48.5v1778q0 65 63 65h72q65 0 65 -65v-537h9q15 42 81.5 85.5t174.5 43.5q185 0 282 -131.5t97 -390.5q0 -263 -95 -390.5t-286 -127.5q-106 0 -166 37t-76 79h-10zM309 506q0 -169 54.5 -252.5 t175.5 -83.5q112 0 162.5 81t50.5 255q0 173 -51 255.5t-162 82.5q-124 0 -177 -83.5t-53 -254.5z" />
<glyph unicode="&#xff;" horiz-adv-x="983" d="M930 950l-301 -880l-78 -242q-45 -133 -117.5 -196.5t-197.5 -63.5l-93 6q-32 3 -46.5 18.5t-14.5 49.5v63q0 35 13 43.5t46 5.5q25 -4 66 -4q71 0 107.5 29.5t58.5 91.5l43 131q-44 12 -60 61l-303 889q-20 64 43 64h111q61 0 82 -66l211 -659l211 659q11 35 30 50.5 t54 15.5h92q66 0 43 -66zM154 1309q0 53 36.5 90t90.5 37q53 0 90 -37t37 -90q0 -52 -37 -88.5t-90 -36.5q-54 0 -90.5 36t-36.5 89zM590 1309q0 53 37 90t90 37q54 0 90.5 -37t36.5 -90t-36.5 -89t-90.5 -36q-53 0 -90 36.5t-37 88.5z" />
<glyph unicode="&#x152;" horiz-adv-x="1951" d="M1204 852h500q63 0 63 -64v-75q0 -64 -63 -64h-500v-444h621q31 0 48 -18t17 -48v-76q0 -63 -65 -63h-813q-20 0 -31.5 11.5t-11.5 29.5v49q-115 -106 -332 -106q-293 0 -429 187t-136 601q0 362 137 544.5t428 182.5q211 0 332 -133v74q0 18 12 30.5t33 12.5h811 q32 0 48.5 -17t16.5 -47v-76q0 -30 -16.5 -47.5t-48.5 -17.5h-621v-426zM637 193q173 0 251.5 128.5t78.5 376.5q0 309 -79.5 450.5t-250.5 141.5q-172 0 -250 -133t-78 -383q0 -308 78 -444.5t250 -136.5z" />
<glyph unicode="&#x153;" horiz-adv-x="1648" d="M510 170q116 0 168.5 78.5t52.5 234.5q0 190 -53 275.5t-170 85.5q-223 0 -223 -316q0 -189 54 -273.5t171 -84.5zM1176 856q-113 0 -166.5 -60t-61.5 -182h432q-3 118 -49 180t-155 62zM1171 -10q-211 0 -321 139q-101 -139 -342 -139q-227 0 -332.5 127t-105.5 409 q0 251 106 376.5t332 125.5q214 0 323 -147q105 147 340 147q94 0 163.5 -23.5t114 -63.5t72.5 -103t39.5 -133t14.5 -162q0 -33 -15 -49.5t-51 -16.5h-561l6 -53q13 -133 68 -193.5t154 -60.5q163 0 204 104q16 46 62 41l69 -8q38 -5 51.5 -21t4.5 -50 q-28 -112 -125.5 -179t-270.5 -67z" />
<glyph unicode="&#x178;" horiz-adv-x="1175" d="M705 573v-510q0 -29 -17.5 -46t-48.5 -17h-104q-31 0 -48.5 17t-17.5 46v508l-408 852q-12 22 -1.5 41t38.5 19h129q61 0 88 -60l281 -604l281 606q27 58 90 58h112q28 0 38 -19t-1 -39zM252 1702q0 53 36.5 90t90.5 37q53 0 90 -37.5t37 -89.5t-37 -88.5t-90 -36.5 q-54 0 -90.5 36t-36.5 89zM688 1702q0 52 37 89.5t90 37.5q54 0 90.5 -37t36.5 -90t-36.5 -89t-90.5 -36q-53 0 -90 36.5t-37 88.5z" />
<glyph unicode="&#x2c6;" horiz-adv-x="958" d="M625 1503l137 -268q8 -15 -1.5 -30t-29.5 -15h-53q-49 0 -78 43l-119 178l-121 -178q-29 -43 -79 -43h-52q-20 0 -28.5 14t0.5 31l137 268q22 43 70 43h145q50 0 72 -43z" />
<glyph unicode="&#x2dc;" horiz-adv-x="899" d="M727 1423h68q21 0 29 -5.5t5 -20.5q-6 -34 -20 -65.5t-41 -65.5t-75.5 -55t-112.5 -21q-47 0 -92.5 17.5t-75.5 39t-68.5 39t-73.5 17.5t-58 -20t-30 -46q-5 -20 -32 -20h-68q-19 0 -26.5 6.5t-6.5 23.5q4 34 17 65.5t37.5 62t67.5 49t99 18.5q43 0 88 -17.5t76.5 -39 t71 -39t72.5 -17.5q46 0 74.5 21.5t39.5 50.5q6 14 12.5 18t22.5 4z" />
<glyph unicode="&#x2000;" horiz-adv-x="986" />
<glyph unicode="&#x2001;" horiz-adv-x="1972" />
<glyph unicode="&#x2002;" horiz-adv-x="986" />
<glyph unicode="&#x2003;" horiz-adv-x="1972" />
<glyph unicode="&#x2004;" horiz-adv-x="657" />
<glyph unicode="&#x2005;" horiz-adv-x="493" />
<glyph unicode="&#x2006;" horiz-adv-x="328" />
<glyph unicode="&#x2007;" horiz-adv-x="328" />
<glyph unicode="&#x2008;" horiz-adv-x="246" />
<glyph unicode="&#x2009;" horiz-adv-x="394" />
<glyph unicode="&#x200a;" horiz-adv-x="109" />
<glyph unicode="&#x2010;" horiz-adv-x="1075" d="M172 717h731q64 0 64 -64v-49q0 -65 -64 -65h-731q-63 0 -63 65v49q0 64 63 64z" />
<glyph unicode="&#x2011;" horiz-adv-x="1075" d="M172 717h731q64 0 64 -64v-49q0 -65 -64 -65h-731q-63 0 -63 65v49q0 64 63 64z" />
<glyph unicode="&#x2012;" horiz-adv-x="1075" d="M172 717h731q64 0 64 -64v-49q0 -65 -64 -65h-731q-63 0 -63 65v49q0 64 63 64z" />
<glyph unicode="&#x2013;" horiz-adv-x="1210" d="M172 717h866q64 0 64 -64v-49q0 -65 -64 -65h-866q-63 0 -63 65v49q0 64 63 64z" />
<glyph unicode="&#x2014;" horiz-adv-x="1906" d="M172 717h1563q63 0 63 -64v-49q0 -65 -63 -65h-1563q-63 0 -63 65v49q0 64 63 64z" />
<glyph unicode="&#x2018;" horiz-adv-x="440" d="M377 1292q0 -65 -44 -110t-108 -45t-108.5 45t-44.5 110v142q0 88 18.5 148.5t68.5 99t132 38.5l31 -2q14 -2 20 -8t6 -24v-50q0 -18 -4.5 -23.5t-19.5 -2.5q-19 4 -35 4q-103 0 -103 -125v-51q18 6 39 6q64 0 108 -44.5t44 -107.5z" />
<glyph unicode="&#x2019;" horiz-adv-x="446" d="M70 1565q0 65 43.5 110t107.5 45t109 -45t45 -110v-142q0 -88 -18.5 -148.5t-68.5 -99t-132 -38.5l-31 2q-15 2 -21 8t-6 24v50q0 18 5 23.5t20 2.5q19 -4 35 -4q102 0 102 125v51q-18 -6 -39 -6q-64 0 -107.5 44.5t-43.5 107.5z" />
<glyph unicode="&#x201a;" horiz-adv-x="458" d="M74 141q0 65 43.5 110.5t107.5 45.5t109 -45.5t45 -110.5v-141q0 -65 -10.5 -114.5t-35 -90t-68 -61.5t-105.5 -21l-31 2q-14 2 -20.5 8.5t-6.5 24.5v49q0 18 5 24t20 3q19 -4 35 -4q102 0 102 125v51q-18 -6 -39 -6q-64 0 -107.5 44t-43.5 107z" />
<glyph unicode="&#x201c;" horiz-adv-x="845" d="M377 1292q0 -65 -44 -110t-108 -45t-108.5 45t-44.5 110v142q0 88 18.5 148.5t68.5 99t132 38.5l31 -2q14 -2 20 -8t6 -24v-50q0 -18 -4.5 -23.5t-19.5 -2.5q-19 4 -35 4q-103 0 -103 -125v-51q18 6 39 6q64 0 108 -44.5t44 -107.5zM784 1292q0 -65 -43.5 -110 t-107.5 -45t-109 45t-45 110v142q0 88 18.5 148.5t68.5 99t132 38.5l31 -2q15 -2 21 -8t6 -24v-50q0 -18 -5 -23.5t-20 -2.5q-19 4 -35 4q-102 0 -102 -125v-51q18 6 39 6q64 0 107.5 -44.5t43.5 -107.5z" />
<glyph unicode="&#x201d;" horiz-adv-x="851" d="M70 1565q0 65 43.5 110t107.5 45t109 -45t45 -110v-142q0 -88 -18.5 -148.5t-68.5 -99t-132 -38.5l-31 2q-15 2 -21 8t-6 24v50q0 18 5 23.5t20 2.5q19 -4 35 -4q102 0 102 125v51q-18 -6 -39 -6q-64 0 -107.5 44.5t-43.5 107.5zM477 1565q0 65 44 110t108 45t108.5 -45 t44.5 -110v-142q0 -88 -18.5 -148.5t-68.5 -99t-132 -38.5l-31 2q-14 2 -20 8t-6 24v50q0 18 4.5 23.5t19.5 2.5q19 -4 35 -4q103 0 103 125v51q-18 -6 -39 -6q-64 0 -108 44.5t-44 107.5z" />
<glyph unicode="&#x201e;" horiz-adv-x="864" d="M72 141q0 65 43.5 110.5t107.5 45.5t109 -45.5t45 -110.5v-141q0 -65 -10.5 -114.5t-35 -90t-68 -61.5t-105.5 -21l-31 2q-14 2 -20.5 8.5t-6.5 24.5v49q0 18 5 24t20 3q19 -4 35 -4q102 0 102 125v51q-18 -6 -39 -6q-64 0 -107.5 44t-43.5 107zM479 141q0 65 44 110.5 t108 45.5t108.5 -45.5t44.5 -110.5v-141q0 -65 -10.5 -114.5t-35 -90t-68 -61.5t-105.5 -21l-30 2q-14 2 -20.5 8.5t-6.5 24.5v49q0 18 5 24t19 3q19 -4 35 -4q103 0 103 125v51q-18 -6 -39 -6q-64 0 -108 44t-44 107z" />
<glyph unicode="&#x2022;" horiz-adv-x="684" d="M123 707q0 90 64 152.5t157 62.5q91 0 154 -63t63 -152q0 -92 -63 -155t-154 -63q-94 0 -157.5 63t-63.5 155z" />
<glyph unicode="&#x2026;" horiz-adv-x="1576" d="M74 145q0 67 45.5 113.5t111.5 46.5q67 0 113.5 -46.5t46.5 -113.5q0 -66 -46.5 -111.5t-113.5 -45.5q-66 0 -111.5 45.5t-45.5 111.5zM631 145q0 67 45.5 113.5t111.5 46.5q68 0 114 -46.5t46 -113.5q0 -66 -46.5 -111.5t-113.5 -45.5q-66 0 -111.5 45.5t-45.5 111.5z M1188 145q0 67 46 113.5t112 46.5q67 0 113 -46t46 -114q0 -66 -46 -111.5t-113 -45.5q-66 0 -112 45.5t-46 111.5z" />
<glyph unicode="&#x202f;" horiz-adv-x="394" />
<glyph unicode="&#x205f;" horiz-adv-x="493" />
<glyph unicode="&#x20ac;" horiz-adv-x="1155" d="M123 653h94q-4 58 -4 88q0 49 2 74h-92q-55 0 -55 51v54q0 51 55 51h121q30 103 88.5 188.5t133.5 146t166 103t185.5 63.5t192.5 23q29 2 46 -14t17 -45v-82q0 -67 -63 -70q-199 -10 -329.5 -93.5t-188.5 -219.5h397q29 0 41 -12t12 -39v-54q0 -27 -12 -39t-41 -12h-436 q-4 -25 -4 -74q0 -45 6 -88h321q53 0 53 -51v-53q0 -53 -53 -53h-276q62 -131 194.5 -209.5t321.5 -91.5q31 -3 44 -20t13 -50v-80q0 -29 -17 -45.5t-46 -15.5q-288 12 -487.5 149t-272.5 363h-127q-55 0 -55 53v53q0 51 55 51z" />
<glyph unicode="&#x2122;" horiz-adv-x="1765" d="M1460 1159l-192 -268q-14 -19 -39 -19t-39 19l-191 268v-502q0 -29 -16 -46t-47 -17h-55q-31 0 -47.5 17t-16.5 46v764q0 32 11.5 47t41.5 15h39q34 0 54.5 -12.5t40.5 -40.5l225 -336l227 338q39 51 94 51h41q54 0 54 -62v-764q0 -29 -17.5 -46t-48.5 -17h-53 q-32 0 -49 17t-17 46v502zM154 1483h514q63 0 63 -62v-35q0 -61 -63 -61h-168v-668q0 -29 -16.5 -46t-47.5 -17h-53q-31 0 -48.5 17t-17.5 46v668h-163q-64 0 -64 61v35q0 29 16.5 45.5t47.5 16.5z" />
<glyph unicode="&#x25fc;" horiz-adv-x="1013" d="M0 1014h1014v-1014h-1014v1014z" />
<glyph unicode="&#xfb01;" horiz-adv-x="1208" d="M840 1313q0 60 41.5 100.5t101.5 40.5t100.5 -40.5t40.5 -100.5q0 -58 -40.5 -97.5t-100.5 -39.5t-101.5 39.5t-41.5 97.5zM1094 950v-884q0 -31 -16.5 -48.5t-47.5 -17.5h-84q-30 0 -46.5 17.5t-16.5 48.5v884q0 66 63 66h84q31 0 47.5 -17.5t16.5 -48.5zM182 840h-76 q-65 0 -65 63v49q0 30 16.5 47t48.5 17h76v139q0 83 18.5 145.5t61 110.5t117 73t180.5 25l84 -6q33 -7 47.5 -21t14.5 -48v-54q0 -40 -15 -51t-49 -6q-26 4 -53 4q-102 0 -147.5 -44t-45.5 -134v-133h205q66 0 66 -64v-49q0 -63 -66 -63h-205v-774q0 -66 -65 -66h-84 q-31 0 -47.5 17.5t-16.5 48.5v774z" />
<glyph unicode="&#xfb02;" horiz-adv-x="1191" d="M1040 1438v-1211q0 -57 58 -57l22 2q12 3 18.5 -4t6.5 -21v-90q0 -32 -14 -45t-48 -18q-34 -4 -63 -4q-191 0 -191 182v1266q0 65 64 65h84q63 0 63 -65zM180 840h-76q-65 0 -65 63v49q0 30 16.5 47t48.5 17h76v139q0 83 18.5 145.5t61 110.5t117 73t180.5 25l84 -6 q32 -7 46.5 -21t14.5 -48v-54q0 -40 -14.5 -51t-48.5 -6q-26 4 -53 4q-102 0 -147.5 -44t-45.5 -134v-133h205q66 0 66 -64v-49q0 -63 -66 -63h-205v-774q0 -66 -65 -66h-84q-31 0 -47.5 17.5t-16.5 48.5v774z" />
</font>
</defs>
</svg>
